<svg width="622" height="715" viewBox="0 0 622 715" fill="none" xmlns="http://www.w3.org/2000/svg">
<path d="M283.206 0.534169C306.876 -0.289231 317.79 14.76 326.038 35.5084C367.582 47.29 365.94 81.262 342.646 110.444C442.604 129.028 485.12 218.96 501.85 311.344C518.16 401.404 521.974 434.172 584.358 503.208C599.144 519.572 616.164 535.91 620.624 558.436C634.876 630.4 494.41 646.686 448.564 652.9C431.552 655.204 414.036 655.784 397.204 659.11C381.852 684.462 365.964 699.744 337.396 709.414C285.37 725.16 249.58 702.21 221.406 661.874C171.178 658.096 11.792 654.678 0.893996 587.112C-4.2136 555.444 16.678 538.974 33.964 516.552C90.196 443.618 95.124 404.79 105.512 318.5C116.488 227.312 163.312 126.534 263.472 110.444C241.78 76.22 236.848 13.229 283.206 0.534169ZM247.95 133.15C253.102 135.798 258.684 137.102 264.16 138.878C378.324 175.898 429.11 357.316 416.178 464.208C463.458 471.938 505.46 473.014 551.64 492.822C547.67 486.292 542.504 480.498 538.026 474.308C512.836 439.488 498.794 400.548 490.934 358.396C475.292 274.528 465.95 183.55 377.604 140.876C338.642 122.054 288.908 118.902 247.95 133.15ZM335.026 574.718C312.926 600.24 262.822 601.192 263.472 659.11C240.306 638.386 233.246 611.076 240.296 581.608C237.268 581.5 234.284 581.392 231.258 581.608C226.068 607.44 226.822 632.056 240.296 655.312C289.672 736.458 415.57 684.096 381.586 576.518C367.556 576.318 349.132 575.678 335.026 574.718ZM434.782 485.374C453.29 510.86 471.884 538.55 445.496 565.45C457.226 567.864 469.616 568.128 481.524 569.468C522.368 574.066 548.304 578.994 584.49 597.028C594.702 591.544 602.65 582.434 603.488 570.39C607.794 508.528 477.168 488.166 434.782 485.374ZM240.296 136.342C153.636 166.008 123.016 275.544 119.576 357.366C124.976 363.018 130.718 364.956 138.07 366.956C141.172 358.648 141.148 342.67 142.286 333.272C150.192 268.026 162.658 193.194 219.574 150.69C224.014 147.374 238.518 140.51 240.296 136.342ZM101.37 604.734C85.556 607.088 70.066 611.82 55.088 617.26C69.738 620.976 83.932 625.822 98.73 629.166C133.536 637.028 177.152 641.446 213.452 642.046C211.864 635.772 210.2 629.536 209.21 623.132C202.006 625.806 194.872 628.15 187.88 631.358C183.81 632.726 179.976 634.098 176.16 636.072C180.366 629.802 186.082 626.112 192.9 623.132C172.288 619.374 151.708 621.36 133.048 631.358C139.522 624.678 147.82 620.296 156.512 617.26L155.842 617.162C117.278 611.438 127.994 612.512 87.474 623.132C96.698 617.216 107.728 613.162 117.792 608.812C113.476 607.348 105.764 603.846 101.37 604.734ZM528.494 597.028C516.576 607.956 505.352 615.888 490.928 623.132C500.314 615.052 509.792 607.394 518.582 598.63C487.252 607.144 491.136 601.466 464.42 619.378C456.194 624.892 447.054 629.552 438.004 633.53C436.416 634.366 434.8 635.17 433.248 636.072C445.336 633.28 458.068 632.214 470.33 630.196C499.494 625.396 542.502 616.704 569.762 604.734C558.022 601.692 540.446 596.346 528.494 597.028ZM285.568 18.7218C286.738 24.9216 289.58 30.641 290.822 36.8168C296.064 62.886 290.756 82.716 283.206 106.874C285.474 107.466 288.388 107.016 290.722 106.874C299.29 93.492 307.06 81.282 309.666 65.262C312.724 46.452 307.28 22.0508 285.568 18.7218ZM65.902 523.69C41.146 534.378 7.35399 561.966 20.79 592.802C28.272 609.972 30.616 605.814 43.172 601.274C27.446 573.374 35.834 556.646 57.232 533.15C59.888 530.234 64.584 527.5 65.902 523.69ZM95.796 452.46C88.944 461.682 71.356 493.304 65.902 504.188C75.548 499.728 85.662 496.014 95.796 492.822C101.216 482.908 112.124 461.326 117.792 454.668C110.782 454.558 102.436 454.868 95.796 452.46ZM119.576 366.956C116.528 379.59 113.752 394.168 111.052 407.09C118.38 407.288 125.718 407.152 133.048 407.09C133.762 394.924 136.682 383.02 138.07 370.92C131.45 371.834 125.444 369.874 119.576 366.956ZM111.052 411.964C105.276 422.62 102.098 435.258 97.352 446.5C105.448 446.6 113.564 446.302 121.652 446.5C125.344 436.038 128.114 425.356 131.086 414.68C124.154 414.546 117.742 413.804 111.052 411.964ZM328.536 56.144C328.452 80.412 321.632 87.918 312.518 106.874C316.074 107.18 320.172 107.954 323.61 106.874C330.746 97.53 342.432 87.24 340.742 74.262C339.906 67.84 334.52 59.056 328.536 56.144ZM462.804 613.05C453.578 613.644 442.162 612.752 433.752 617.13C427.666 620.3 410.002 631.052 405.952 635.66C405.156 636.564 403.996 638.32 405.942 638.342C435.364 637.45 439.136 626.592 463.448 612.83L462.804 613.05ZM417.528 617.26C414.35 617.302 411.174 617.288 407.996 617.26C407.546 620.958 406.25 625.826 406.842 629.464L407.454 629.602L407.996 629.166C408.844 628.376 425.202 615.576 417.528 617.26Z" fill="black"/>
<path d="M283.206 106.874C267.936 83.0979 257.492 57.0519 272.542 29.7007C275.574 24.1879 279.454 20.4615 285.568 18.7217C286.738 24.9215 289.58 30.6409 290.822 36.8167C296.064 62.8859 290.756 82.7159 283.206 106.874Z" fill="#FECA04"/>
<path d="M65.902 523.69C149.638 482.364 296.368 475.454 386.638 481.218C400.068 482.076 422.352 482.606 434.782 485.374C453.29 510.86 471.884 538.55 445.496 565.45C431.084 565.404 416.474 563.298 402.126 562C314.086 554.032 225.764 561.788 138.898 577.144C107.872 582.63 72.622 589.544 43.172 601.274C27.446 573.374 35.834 556.646 57.232 533.15C59.888 530.234 64.584 527.5 65.902 523.69Z" fill="#FECA04"/>
<path d="M240.296 136.342C242.6 134.844 245.368 134.036 247.95 133.15C253.102 135.798 258.684 137.102 264.16 138.878C378.324 175.898 429.11 357.316 416.178 464.208L415.258 464.238C403.416 464.566 391.224 462.984 379.356 462.538C291.284 459.218 200.456 463.236 115.25 487.216C108.798 489.032 102.308 491.272 95.796 492.822C101.216 482.908 112.124 461.326 117.792 454.668C166.936 454.184 218.058 426.508 252.912 393.616C255.786 390.904 261.394 386.572 262.996 383.112C258.856 384.794 250.004 393.496 245.892 396.682C205.264 428.168 168.654 435.246 121.652 446.5C125.344 436.038 128.114 425.356 131.086 414.68C168.378 414.624 205.244 391.838 223.152 359.174C199.008 385.15 168.306 402.042 133.048 407.09C133.762 394.924 136.682 383.02 138.07 370.92L151.174 368.958C146.85 368.108 142.436 367.572 138.07 366.956C141.172 358.648 141.148 342.67 142.286 333.272C150.192 268.026 162.658 193.194 219.574 150.69C224.014 147.374 238.518 140.51 240.296 136.342Z" fill="#FECA04"/>
<path d="M259.652 161.47C266.308 161.278 276.536 160.47 279.468 168.242C284.246 180.91 267.452 179.848 261.12 179.968C211.81 180.912 187.74 238.336 180.066 279.576C178.198 289.618 178.66 301.982 173.968 311.162C165.178 319.342 157.626 313.004 157.602 302.812C157.58 292.5 160.212 281.092 162.608 271.084C173.994 223.49 202.412 161.974 259.652 161.47Z" fill="black"/>
</svg>
