<?xml version="1.0" encoding="utf-8" ?>
<svg xmlns="http://www.w3.org/2000/svg" xmlns:xlink="http://www.w3.org/1999/xlink" width="1024" height="1024">
	<path transform="scale(2 2)" d="M349.812 117.275C360.024 115.469 372.479 121.525 380.348 127.547C390.165 135.059 396.095 145.24 397.746 157.529C406.026 161.178 414.909 163.57 422.752 168.184C444.044 180.709 443.336 200.582 445.214 222.101C447.347 246.548 448.989 271.127 449.402 295.671C449.847 322.078 441.184 340.481 412.741 347.608L412.697 347.99C410.595 364.842 396.425 381.364 379.568 385.101C374.697 386.181 369.405 386.248 364.438 386.621L343.13 388.389C297.859 392.151 253.826 394.709 208.446 394.512C194.557 394.452 178.96 395.159 165.209 393.295C161.969 393.564 158.581 393.157 155.343 392.935L124.776 390.948C101.247 389.396 82.8724 378.928 79.4025 352.945C73.1206 305.906 67.8612 256.948 65.2723 209.714L64.1348 190.441C62.9236 169.009 67.8106 149.324 90.8464 141.078C96.9328 138.899 103.513 138.337 109.879 137.468L132.383 134.367C189.614 126.061 251.264 120.673 308.914 119.344C322.951 119.02 335.867 119.036 349.812 117.275ZM347.785 131.401C294.071 131.611 235.328 137.398 181.748 141.576L129.281 146.044C114.084 147.357 94.2913 146.088 82.7089 157.865C70.1581 170.627 73.2548 186.117 74.0387 202.251C75.9502 241.59 79.6099 280.906 84.5616 319.972L87.514 342.751C88.117 347.374 88.4122 352.18 89.6706 356.678C98.2084 387.2 126.557 379.486 149.807 378.74C168.996 378.124 188.174 378.172 207.369 378.178C254.649 378.199 299.058 376.877 346.427 372.629L362.43 371.275C367.074 370.918 372.012 370.884 376.512 369.634C390.516 365.741 398.61 352.125 398.477 338.102C398.347 324.361 397.696 310.504 396.705 296.8C383.565 298.398 358.903 301.601 346.72 299.17C294.77 288.801 295.987 208.712 354.286 202.192C365.773 200.908 377.266 203.48 388.749 202.558C389.614 196.234 383.29 157.975 381.134 150.722C376.218 134.184 362.667 130.921 347.785 131.401ZM379.86 290.118C377.03 288.441 373.76 288.721 370.62 288.319C354.7 286.279 332.715 275.861 328.076 259.42C323.463 243.07 334.722 224.073 350.936 219.68C364.31 216.055 408.448 215.057 420.611 222.057C436.654 231.29 438.681 277.273 438.747 293.171C441.385 293.496 439.792 285.325 439.749 283.704C439.159 261.282 438.329 238.338 435.307 216.086C421.146 212.107 386.732 211.844 371.527 211.208C356.691 210.588 343.087 210.678 331.301 221.222C310.748 239.611 314.25 274.512 338.99 286.787C353.225 293.85 365.278 289.42 379.86 290.118ZM399.22 168.098C399.849 176.387 401.501 196.818 403.394 204.348C413.634 204.188 424.695 206.832 434.152 206.487C433.393 181.629 419.64 176.252 399.22 168.098ZM411.483 297.227C410.59 309.638 412.961 324.888 412.741 338.002C419.509 336.629 425.31 333.134 430.268 328.396C437.168 321.095 440.295 313.409 440 303.344L439.989 302.985C430.591 300.367 421.188 298.287 411.483 297.227Z"/>
	<path fill="#FECA04" transform="scale(2 2)" d="M379.86 290.118C377.03 288.441 373.76 288.721 370.62 288.319C354.7 286.279 332.715 275.861 328.076 259.42C323.463 243.07 334.722 224.073 350.936 219.68C364.31 216.055 408.448 215.057 420.611 222.057C436.654 231.29 438.681 277.273 438.747 293.171C426.988 287.273 392.17 287.272 379.86 290.118Z"/>
	<path transform="scale(2 2)" d="M354.612 227.842C368.707 226.435 380.344 240.779 378.048 254.328C374.177 277.166 342.791 275.848 345.227 266.46C346.874 260.11 355.125 267.253 363.705 261.849C368.098 258.327 370.908 252.951 369.566 247.22C366.179 232.761 345.382 234.145 342.73 246.431C342.29 248.47 342.404 251.074 341.302 252.868C339.147 256.377 334.063 254.638 333.586 250.879C332.125 239.367 343.638 229.123 354.612 227.842Z"/>
	<path transform="scale(2 2)" d="M377.019 186.249C382.298 186.13 383.135 195.275 379.86 197.385C374.03 197.511 373.058 189.185 377.019 186.249Z"/>
	<path transform="scale(2 2)" d="M258.546 365.481C261.723 365.411 269.267 364.283 267.423 369.885C267.11 370.838 266.668 371.278 265.805 371.746C262.934 371.807 254.721 372.943 256.373 367.576C256.711 366.48 257.605 366.011 258.546 365.481Z"/>
	<path transform="scale(2 2)" d="M373.78 163.466C378.9 162.763 380.669 172.834 377.019 175.727C370.871 175.957 370.901 165.693 373.78 163.466Z"/>
	<path transform="scale(2 2)" d="M383.407 332.743C390.078 332.393 388.923 342.267 385.49 343.917C379.249 345.466 380.106 335.283 383.407 332.743Z"/>
	<path transform="scale(2 2)" d="M344.912 137.249C347.578 137.245 356.738 135.807 354.62 141.384C354.245 142.369 353.408 142.813 352.511 143.249C341.628 144.996 338.494 138.717 344.912 137.249Z"/>
	<path transform="scale(2 2)" d="M281.469 364.654C291.646 363.539 293.063 369.508 286.949 370.991C275.402 372.137 276.953 365.318 281.469 364.654Z"/>
	<path transform="scale(2 2)" d="M372.495 355.511C379.116 355.258 378.401 362.019 369.534 363.247C365.167 364.092 360.551 359.431 372.495 355.511Z"/>
	<path transform="scale(2 2)" d="M327.26 138.09C332.377 137.516 336.884 144.25 323.438 144.251C318.298 144.354 314.008 138.74 327.26 138.09Z"/>
	<path transform="scale(2 2)" d="M329.211 362.33C336.966 361.268 339.338 368.183 329.211 369.076C320.76 369.75 320.302 363.2 329.211 362.33Z"/>
	<path transform="scale(2 2)" d="M384.343 308.737C390.629 308.686 390.427 319.777 386.311 321.352C380.688 320.556 379.907 311.297 384.343 308.737Z"/>
	<path transform="scale(2 2)" d="M352.511 360.345C353.468 360.243 354.494 360.332 355.459 360.345C360.62 365.415 353.834 366.705 349.812 367.229C346.55 367.393 342.248 365.569 344.745 362.124C346.1 360.256 350.407 360.521 352.511 360.345Z"/>
	<path transform="scale(2 2)" d="M237.196 366.248C239.352 366.205 243.855 365.632 245.717 366.676C248.317 368.133 246.789 372.078 244.285 372.753C241.901 372.779 238.952 373.142 236.632 372.556C232.786 371.584 233.428 367.244 237.196 366.248Z"/>
	<path transform="scale(2 2)" d="M303.332 363.247C305.653 363.2 309.366 362.637 311.441 363.641C315.082 365.401 313.099 369.079 310.07 369.9C307.664 369.723 304.688 370.485 302.436 369.639C298.831 368.285 300.407 364.358 303.332 363.247Z"/>
	<path transform="scale(2 2)" d="M364.672 140.466C368.64 140.588 377.115 149.867 371.428 152.882C369.163 153.076 358.074 142.947 364.672 140.466Z"/>
	<path transform="scale(2 2)" d="M192.871 171.734C198.219 171.603 209.486 180.222 213.853 183.206C231.504 195.266 273.686 231.051 281.469 251.7C272.629 277.753 249.769 305.656 230.63 324.756C225.573 329.802 218.925 339.543 210.688 338.002C185.873 329.485 147.041 295.061 131.384 274.891C127.494 269.88 122.882 264.117 121.142 257.957C126.343 237.411 158.334 203.458 173.069 188.746C178.987 182.837 185.441 175.695 192.871 171.734ZM196.627 222.282C189.641 230.087 180.712 247.432 174.335 256.891C172.954 259.866 173.395 261.927 173.569 265.057C175.613 265.783 202.789 289.523 206.111 293.171C211.776 284.647 224.111 261.664 230.299 255.325C230.329 253.493 230.316 251.488 228.99 250.073C224.497 248.818 202.577 226.764 196.627 222.282ZM152.315 224.667C154.283 226.675 156.33 228.65 158.201 230.747C162.193 225.06 166.836 219.933 171.45 214.756L183.578 201.159C186.98 197.401 190.221 192.864 194.307 189.869C201.444 196.943 214.067 206.042 222.253 212.872C226.753 216.626 230.767 221.368 235.586 224.667C237.253 221.847 239.185 219.016 240.628 216.086C229.755 206.557 218.983 197.566 207.108 189.286C203.009 186.427 198.351 184.36 194.307 181.478C188.431 184.244 156.585 218.315 152.315 224.667ZM242.319 230.747C249.597 235.803 261.185 250.954 268.935 257.957C269.872 256.203 270.754 254.432 271.612 252.638C265.733 241.472 255.745 231.396 247.155 222.282C245.624 225.155 243.985 227.951 242.319 230.747ZM174.335 277.358C170.74 283.339 166.476 290.341 163.946 296.8C164.96 297.368 166.025 297.896 166.933 298.626C168.292 296.106 170.791 295.434 172.517 293.348C175.357 289.914 176.863 285.344 179.945 282.141C178.124 280.468 176.306 278.859 174.335 277.358Z"/>
	<path fill="#FECA04" transform="scale(2 2)" d="M228.99 250.073C234.378 246.605 238.449 236.228 242.319 230.747C249.597 235.803 261.185 250.954 268.935 257.957C266.578 264.386 262.239 271.553 258.546 277.358C252.588 271.479 240.428 258.757 233.811 254.294C232.605 254.515 231.459 254.936 230.299 255.325C230.329 253.493 230.316 251.488 228.99 250.073Z"/>
	<path fill="#FECA04" transform="scale(2 2)" d="M146.799 231.956C151.821 236.569 157.677 243.185 162.53 248.225C166.031 251.861 168.807 256.986 174.335 256.891C172.954 259.866 173.395 261.927 173.569 265.057C167.74 265.834 160.281 284.322 157.234 290.118C146.782 280.843 137.846 269.855 130.556 257.957C135.417 247.694 139.562 240.838 146.799 231.956Z"/>
	<path fill="#FECA04" transform="scale(2 2)" d="M194.307 189.869C201.444 196.943 214.067 206.042 222.253 212.872C226.753 216.626 230.767 221.368 235.586 224.667C233.006 229.216 230.383 233.775 227.52 238.151C222.907 234.08 199.849 211.005 195.263 210.186C191.46 211.355 174.911 239.763 171.563 244.849L162.936 235.723C161.37 234.081 159.641 232.492 158.201 230.747C162.193 225.06 166.836 219.933 171.45 214.756L183.578 201.159C186.98 197.401 190.221 192.864 194.307 189.869Z"/>
	<path fill="#FECA04" transform="scale(2 2)" d="M233.811 266.588C239.233 270.178 248.207 280 253.445 284.809C243.145 299.472 226.571 317.407 213.137 329.331C201.385 324.104 176.869 308.207 166.933 298.626C168.292 296.106 170.791 295.434 172.517 293.348C175.357 289.914 176.863 285.344 179.945 282.141C183.432 285.281 205.056 304.468 207.723 304.823C213.275 302.226 227.158 272.822 233.811 266.588Z"/>
	<path transform="scale(2 2)" d="M196.627 238.151C200.997 236.599 215.877 252.333 217.771 255.325C216.254 259.667 207.888 275.711 205.136 278.193C200.434 280.164 185.75 263.634 183.999 260.588C185.382 255.835 192.294 240.635 196.627 238.151Z"/>
	<path fill="#FECA04" transform="scale(2 2)" d="M199.309 250.073C201.771 251.172 204.942 255.089 207.369 256.891C205.822 260.207 203.941 263.445 202.067 266.588C199.421 264.051 196.883 261.384 194.307 258.775C195.8 255.831 197.213 252.633 199.309 250.073Z"/>
</svg>
