<svg width="667" height="624" viewBox="0 0 667 624" fill="none" xmlns="http://www.w3.org/2000/svg">
<path d="M529.142 0.37221C569.57 0.31541 603.51 -4.33578 635.886 25.888C659.35 47.794 661.686 76.044 662.982 106.074C664.892 150.282 664.798 197.794 664.75 242.25L666.118 480.836C666.642 519.286 671.4 562.622 642.696 593.174C620.906 616.368 585.764 617.294 556.168 618.812C440.486 624.742 324.766 622.84 208.99 623.24C185.666 623.32 163.584 620.884 139.466 621.768L106.366 620.462C23.892 616.814 6.9158 588.664 4.4478 510.504L2.47659 441.742C0.972592 374.662 0.358005 307.256 1.03461 240.152L1.6678 103.348C1.586 80.554 7.95819 57.604 24.43 41.15C47.394 18.21 78.284 19.478 108.234 17.37C208.936 10.282 309.868 6.71802 410.75 3.39202C450.182 2.09202 489.686 0.31341 529.142 0.37221ZM16.011 134.352L17.1002 267.628C17.3436 277.06 18.1228 286.496 18.456 295.932L26.536 495.998C30.968 586.654 41.842 594.12 132.688 596.74C152.766 597.318 172.8 597.89 192.888 598.072L431.416 599.504C454.372 599.414 487.556 593.81 508.486 597.994L509.78 597.718C541.646 590.868 599.532 601.678 623.732 577.616C643.97 557.496 640.514 535.766 640.474 510.194L639.014 139.192C629.848 139.76 620.802 138.344 611.536 139.192L609.53 137.62C584.046 140.12 548.842 137.03 522.008 137.65L134.076 142.706C100.162 142.684 47.118 143.98 16.011 134.352ZM27.996 133.402C53.356 135.568 78.948 134.166 104.342 133.534L496.53 118.81C525.502 117.95 610.588 115.162 637.062 120.394C637.738 102.454 636.824 57.658 617.592 47.422C614.452 47.428 611.87 45.86 608.914 45.064C568.622 34.208 506.01 35.766 464 37.06C448.796 37.528 433.594 38.956 418.366 39.46L129.91 51.54C105.664 52.58 75.496 48.336 55.618 65.448C37.902 80.698 24.93 109.944 33.798 133.25C31.924 133.736 29.914 133.486 27.996 133.402ZM46.952 39.384C28.272 49.538 16.8358 68.638 14.7326 89.504C14.0172 96.6 11.622 132.372 19 134.352C21.326 133.162 25.38 133.42 27.996 133.402C29.914 133.486 31.924 133.736 33.798 133.25C24.93 109.944 37.902 80.698 55.618 65.448C75.496 48.336 105.664 52.58 129.91 51.54L418.366 39.46C433.594 38.956 448.796 37.528 464 37.06C506.01 35.766 568.622 34.208 608.914 45.064C611.87 45.86 614.452 47.428 617.592 47.422C595.838 21.556 553.5 26.48 523.56 26.5L476.722 26.494C443.75 26.488 410.716 26.114 377.752 26.636L188.138 30.486C181.842 30.586 175.546 30.276 169.25 30.262L117.938 30.496C94.13 30.506 68.904 28.568 46.952 39.384Z" fill="black"/>
<path d="M27.996 133.402C29.914 133.486 31.924 133.736 33.798 133.25C24.93 109.944 37.902 80.6976 55.618 65.4476C75.496 48.3356 105.664 52.5796 129.91 51.5396L418.366 39.4596C433.594 38.9556 448.796 37.5276 464 37.0596C506.01 35.7656 568.622 34.2076 608.914 45.0636C611.87 45.8596 614.452 47.4276 617.592 47.4216C636.824 57.6576 637.738 102.454 637.062 120.394C610.588 115.162 525.502 117.95 496.53 118.81L104.342 133.534C78.948 134.166 53.356 135.568 27.996 133.402ZM553.04 46.1956C510.864 49.9676 505.476 105.114 551.996 106.054C596.3 104.422 594.148 46.3516 553.04 46.1956ZM450.042 48.4476C406.57 57.5556 416.942 114.128 458.45 107.864C501.554 98.6097 489.846 45.3696 450.042 48.4476Z" fill="#FECA05"/>
<path d="M514.236 588.406C523.572 585.526 533.55 584.806 543.138 582.914C539.794 585.87 535.07 584.478 531.692 586.982C532.574 587.384 546.924 587.904 550.092 588.406C542.662 589.242 520.68 589.138 514.236 588.406Z" fill="#FED850"/>
<path d="M488.662 456.926C524.036 454.05 515.394 474.24 506.202 476.032C494.398 478.334 474.154 477.588 461.804 477.972C443.498 478.542 424.776 480.374 406.488 479.484C376.496 485.924 379.876 462.922 390.938 460.792C400.554 458.942 411.744 459.582 421.596 459.204L488.662 456.926Z" fill="black"/>
<path d="M517.692 312.152C526.62 312.196 555.316 309.9 561.388 315.378C564.87 318.522 564.6 325.419 561.422 328.651C555.622 334.547 540.422 332.176 533.002 332.172C495.236 332.148 458.566 335.24 421.462 335.534C408.358 337.376 379.778 344.401 378.558 327.177C378.84 324.685 378.892 321.845 380.74 319.935C386.076 314.419 505.526 312.13 517.692 312.152Z" fill="black"/>
<path d="M505.232 391.04L539.58 391.06C547.214 391.044 563.296 388.4 564.662 399.576C566.736 416.54 536.56 410.922 526.398 411.01C499.452 411.244 465.01 410.65 438.518 413.566C426.348 414.142 397.98 415.936 387.556 414.708C380.048 413.822 376.364 403.674 381.638 398.144C388.244 391.216 410.838 393.726 419.748 393.42L468.714 391.86C480.908 391.592 493.038 391.664 505.232 391.04Z" fill="black"/>
<path d="M536.226 239.486C541.99 239.194 554.6 237.73 559.174 241.106C563.728 244.464 565.114 251.198 561.402 255.684C556.614 261.474 542.43 259.182 535.828 259.168C489.994 259.08 444.07 260.374 398.376 263.976C389.438 263.524 372.644 268.104 372.996 253.924C373.112 249.262 375.326 247.028 378.558 244.062C429.364 240.576 485.78 237.95 536.226 239.486Z" fill="black"/>
<path d="M609.53 137.62L611.536 139.192C620.326 173.656 623.928 224.628 624.944 259.752L629.378 416.38C630.422 451.114 634.21 534.464 617.92 561.738C601.356 589.472 576.882 583.512 550.092 588.406C546.924 587.904 532.574 587.384 531.692 586.982C535.07 584.478 539.794 585.87 543.138 582.914C610.164 565.94 609.592 530.894 609.534 475.238L609.522 225.818C609.534 196.444 610.112 166.984 609.53 137.62Z" fill="#FECA05"/>
<path d="M260.8 239.486C323.316 239.942 325.864 247.272 325.888 310.362L326.522 374.974C326.668 403.436 333.844 457.514 316.952 477.214C302.746 493.782 287.404 490.666 267.426 491.692C233.584 493.432 199.534 493.32 165.782 495.976C149.412 495.866 130.136 498.638 116.68 487.128C98.72 471.766 102.68 438.662 101.324 417.026C99.108 381.65 96.754 346.734 96.606 311.242C96.336 246.386 103.586 242.41 168.482 241.48C198.078 241.056 231.86 241.604 260.8 239.486ZM260.8 259.144C235.986 258.8 211.4 260.25 186.628 260.496L159.13 260.574C110.796 260.314 114.022 266.85 116.852 311.4C119.108 346.892 119.302 382.05 119.244 417.59C119.15 476.478 117.256 473.99 169.25 474.726L276.756 474.672C285.37 474.674 299.17 476.556 305.79 469.698C318.536 456.492 312.23 429.348 311.054 412.762C308.45 375.992 306.712 339.364 307.244 302.5C307.424 289.948 310.788 273.474 300.532 263.854C294.176 257.896 270.062 257.75 260.8 259.144Z" fill="black"/>
<path d="M228.456 286.986C249.23 287.226 278.836 281.678 287.284 306.554C293.336 324.372 291.638 399.282 287.466 415.654C281.172 440.354 257.452 436.396 237.612 436.846C225.406 437.122 213.31 437.852 201.08 437.814C185.796 437.632 167.59 441.502 155.22 430.234C137.934 414.492 138.414 347.178 137.564 323.478C137.01 308.074 141.152 295.606 156.846 291.018C174.156 285.958 209.264 286.998 228.456 286.986Z" fill="#FECA05"/>
<rect x="418" y="47" width="76" height="67" fill="#FECA05"/>
<rect x="514" y="45" width="76" height="69" fill="#FECA05"/>
</svg>
