<svg width="850" height="717" viewBox="0 0 850 717" fill="none" xmlns="http://www.w3.org/2000/svg">
<path d="M682.458 0.1663C694.12 -1.4545 718.248 12.3913 728.748 17.2473L778.156 40.1085C790.234 45.7111 802.416 51.0419 814.426 56.7999C847.406 72.6139 842.418 80.7399 843.908 113.39L847.976 209.14C849.946 247.52 856.492 251.068 819.318 270.016L731.532 314.674C714.176 323.588 704.1 333.666 684.532 324.552C676.828 360.514 670.908 391.664 657.174 426.84C676.212 454.014 699.686 502.006 716.328 532.858C728.69 555.778 715.976 562.828 697.444 572.496C663.004 590.466 628.224 608.128 593.304 625.122C565.958 638.428 561.016 630.056 549.716 605.878L534.412 573.828C461.708 593.222 388.076 589.612 315.504 573.828C315.43 583.83 315.528 593.816 315.92 603.81C317.146 634.956 319.648 639.982 290.964 654.296L197.798 701.982C188.154 706.868 177.522 714.274 166.986 716.64C155.144 715.208 105.741 688.482 93.3 682.378L45.4816 659.252C33.1044 653.298 7.7988 645.722 6.4582 630.922C4.5716 610.092 4.962 588.834 4.1102 567.924L2.20961 508.462C1.72161 496.072 0.5926 483.568 0.5872 471.172C0.5788 452.118 16.1744 449.528 31.435 442.37L121.252 398.97C135.402 392.05 150.19 380.274 165.292 386.372C169.016 346.072 176.37 325.108 191.34 289.086C184.024 282.322 180.928 274.532 176.586 265.724L139.654 193.28C120.524 155.754 115.668 154.072 156.086 134.23L213.402 106.55C230.132 98.4719 246.406 88.2599 263.634 81.3659C279.878 74.8639 286.62 92.4319 292.914 103.51C299.886 115.778 306.444 128.674 314.14 140.488C381.338 125.818 427.72 119.718 498.036 130.802C507.462 132.288 522.018 133.31 530.494 137.342C531.428 119.902 527.894 93.2639 530.28 77.9679C532.322 64.8859 551.53 59.5419 561.788 54.5759L652.598 11.8691C661.932 7.5445 672.084 1.4291 682.458 0.1663ZM411.644 144.502C383.28 147.244 352.076 148.352 325.02 158.272C329.79 175.494 347.726 191.368 350.658 208.89C353.206 224.118 334.864 230.268 324.342 235.694L297.776 249.708C271.072 263.516 239.274 280.766 211.784 292.576C196.3 315.244 183.252 369.394 184.02 395.398C191.832 399.116 199.882 402.296 207.734 405.932L265.25 432.914C276.782 438.24 291.668 443.996 302.338 450.496C315.17 458.316 312.424 466.538 312.844 480.102C313.534 502.402 315.464 532.174 314.14 553.872C355.962 563.732 392.64 567.536 435.6 567.25C466.022 565.868 495.756 562.686 525.542 556.002C520.336 544.32 514.694 532.716 509.082 521.222C493.726 489.78 493.432 486.886 522.5 472.246L602.218 433.268C613.926 427.566 625.378 419.298 638.754 419.5C650.754 387.682 661.45 353.146 665.196 319.134C655.086 312.524 643.174 307.934 632.266 302.752L571.652 274.086C540.688 259.71 535.302 264.468 534.168 228.892L533.176 199.4C532.766 185.932 531.146 169.074 532.014 155.918C488.864 149.488 457.478 142.882 411.644 144.502ZM292.704 480.02L219.278 515.652C203.48 523.232 186.502 530.286 171.596 539.5C172.558 587.81 178.536 640.712 177.744 687.894L178.368 689.416C182.888 689.626 216.114 670.72 222.41 667.464L263.456 646.668C305.914 624.974 297.474 637.842 295.808 584.702L294.38 534.942C294.146 527.724 294.852 484.236 293.12 480.144L292.704 480.02ZM822.32 95.4439C811.126 100.28 800.572 106.782 789.54 112.032C764.988 123.714 724.238 141.236 702.082 155.918C701.494 163.36 702.104 170.704 702.51 178.136L704.546 212.018C706.244 242.3 707.168 272.704 709.63 302.93C722.624 298.956 741.992 287.17 754.83 280.722L805.18 255.39C813.086 251.342 823.024 248.062 829.482 241.79C829.776 223.006 828.248 204.232 827.41 185.478L823.356 96.2819C823.044 96.0159 822.678 95.6339 822.32 95.4439ZM560.776 76.2679L631.71 109.116C652.022 118.756 672.154 128.86 692.984 137.342C733.828 119.262 772.858 95.6759 813.25 78.1159C807.81 75.5759 802.256 73.2959 796.782 70.8339C775.074 60.3839 735.108 39.0653 713.094 32.1073C704.426 27.3211 695.16 23.7987 686.544 18.8847C673.376 22.3617 660.37 29.7369 647.98 35.4301C618.816 48.8299 590.02 63.0459 560.776 76.2679ZM156.452 403.754C147.572 407.196 139.054 411.66 130.496 415.834L52.7382 453.44C45.9632 456.676 38.9602 459.718 32.4342 463.43L118.992 502.842C131.364 508.53 150.676 516.19 161.592 523.202C168.7 518.474 176.796 514.898 184.476 511.188L259.07 475.044C267.142 471.116 275.19 466.898 283.468 463.43C278.2 460.302 272.502 457.696 266.866 455.294C258.484 450.682 241.36 441.836 232.512 439.516C217.482 429.92 174.692 410.236 156.452 403.754ZM548.642 92.1319L549.512 97.3639C571.684 135.894 601.14 176.996 626.016 213.994L690.018 307.062C691.18 259.756 683.938 203.262 682.458 154.654C668.424 148.73 654.696 141.762 640.952 135.178L590.866 111.458C577.072 104.838 563.006 97.3819 548.642 92.1319ZM20.9024 480.02C20.7104 483.376 20.6992 486.61 20.9024 489.966C27.974 497.044 33.3906 505.774 39.0796 513.962L57.8986 540.562C81.2524 573.444 104.198 606.63 126.83 640.02C137.636 655.964 148.758 674.644 159.25 689.654C159.174 675.586 157.75 661.506 157.012 647.456L152.93 558.158C152.7 551.982 152.912 545.596 151.884 539.5L67.654 500.426C52.367 493.46 36.7414 485.542 20.9024 480.02ZM292.704 210.362C280.028 220.316 261.848 229.286 247.94 238.046C238.716 243.856 229.426 251.848 219.758 256.572C217.656 261.208 215.938 265.776 214.43 270.646C248.488 252.338 283.688 236.018 318.036 218.228C310.006 214.454 300.424 214.388 292.704 210.362ZM662.046 545.868C644.788 560.792 615.49 578.722 595.562 591.758C592.758 595.964 591.228 600.204 589.588 604.958C596.748 601.95 603.614 598.132 610.512 594.568L670.69 563.824C677.15 560.556 683.764 557.526 690.018 553.872C680.884 550.634 671.24 548.924 662.046 545.868ZM588.07 525.652C581.624 540.65 569.726 570.722 560.776 582.978C564.02 589.56 567.002 596.274 570.042 602.952C580.142 578.388 588.332 553.128 598.93 528.682C595.274 527.766 591.672 526.766 588.07 525.652ZM214.43 189.482C208.846 199.71 189.87 234.068 187.438 244.474C190.272 250.258 192.916 257.25 196.772 262.364C206.966 239.682 214.16 215.536 223.932 192.614C220.806 191.454 217.608 190.49 214.43 189.482ZM625.246 443.98C616.904 464.082 605.176 488.272 595.562 507.666C599.15 508.98 602.754 510.058 606.436 511.072C610.09 500.024 614.848 489.296 619.284 478.54L634.978 439.516C631.428 440.452 628.392 442.156 625.246 443.98ZM216.936 171.258C221.642 172.234 226.246 173.732 230.944 174.792C239.05 154.56 247.244 134.422 254.808 113.976C239.326 117.808 226.484 156.25 216.936 171.258ZM314.14 179.76C309.384 184.76 302.898 188.32 297.488 192.614C306.658 195.068 316.468 197.034 325.02 201.174C322.23 193.52 318.292 186.74 314.14 179.76ZM674.088 528.682C681.002 530.414 687.556 533.398 694.582 535.022C691.702 528.95 688.374 523.466 684.532 517.966C681.46 522.182 678.078 525.358 674.088 528.682Z" fill="black"/>
<path d="M617.538 535.021C630.69 535.949 648.686 542.513 662.046 545.867C644.788 560.791 615.49 578.722 595.562 591.758C597.662 580.664 612.346 545.033 617.538 535.021Z" fill="#FECA04"/>
<path d="M242.996 197.272C259.428 201.916 276.002 206.816 292.704 210.362C280.028 220.316 261.848 229.286 247.94 238.046C238.716 243.856 229.426 251.848 219.758 256.572C221.282 250.11 224.562 243.432 227.016 237.238L242.996 197.272Z" fill="#FECA04"/>
<path d="M149.858 171.258C171.418 177.006 193.044 183.108 214.43 189.482C208.846 199.71 189.87 234.068 187.438 244.474C174.336 220.436 163.5 194.932 149.858 171.258Z" fill="#FECA04"/>
<path d="M159.25 154.654C188.908 137.398 227.096 121.362 258.632 105.3C257.494 108.26 256.16 111.108 254.808 113.976C239.326 117.808 226.484 156.25 216.936 171.258C202.374 165.426 174.206 157.426 159.25 154.654Z" fill="#FECA04"/>
<path d="M525.542 507.666C546.178 514.524 567.244 519.494 588.07 525.652C581.624 540.65 569.726 570.722 560.776 582.978C552.112 568.94 529.516 521.648 525.542 507.666Z" fill="#FECA04"/>
<path d="M650.186 455.294C659.186 467.088 678.592 504.04 684.532 517.966C681.46 522.182 678.078 525.358 674.088 528.682C658.766 526.358 640.098 520.12 625.246 515.478C631.026 498.182 642.248 472.138 650.186 455.294Z" fill="#FECA04"/>
<path d="M530.494 489.966C536.32 486.514 542.758 483.722 548.888 480.828L580.02 466.316C595.254 459.186 610.008 451.096 625.246 443.98C616.904 464.082 605.176 488.273 595.562 507.667C575.086 503.529 551.714 495.028 530.494 489.966Z" fill="#FECA04"/>
<path d="M276.168 113.976C281.566 121.27 285.438 129.774 289.932 137.654L314.14 179.76C309.384 184.76 302.898 188.32 297.488 192.614C281.602 188.858 265.912 183.744 250.048 179.76L265.548 140.53C268.968 131.67 272.082 122.552 276.168 113.976Z" fill="#FECA04"/>
<path d="M553.966 244.474C552.934 235.256 553.084 225.644 552.808 216.362L549.6 118.982C549.354 111.912 548.756 104.398 549.512 97.3643C571.684 135.894 601.14 176.996 626.016 213.994L690.018 307.062C691.262 311.692 674.12 300.632 671.9 299.596C634.36 282.038 591.776 259.47 553.966 244.474Z" fill="#FECA04"/>
<path d="M20.9024 489.966C27.974 497.044 33.3906 505.774 39.0796 513.962L57.8986 540.562C81.2524 573.444 104.198 606.63 126.83 640.02C137.636 655.964 148.758 674.644 159.25 689.654C159.734 693.47 159.316 693.638 156.114 692.026C130.908 679.326 105.331 667.296 79.9862 654.862L46.4578 638.69C39.2762 635.256 32.1576 631.536 24.7074 628.72C24.7706 597.75 23.3092 564.798 22.2024 533.58C21.6918 519.182 20.369 504.354 20.9024 489.966Z" fill="#FECA04"/>
<path d="M191.34 435.357C198.724 434.285 219.926 444.15 232.512 439.516C241.36 441.836 258.484 450.682 266.866 455.294C259.466 458.852 250.728 460.102 243.02 463.044C235.42 465.942 228.188 473.624 219.758 469.158C241.034 454.072 200.784 441.709 192.04 435.833L191.34 435.357Z" fill="#FECA04"/>
<path d="M159.25 422.006C170.332 425.426 180.166 431.884 191.34 435.358L192.04 435.834C200.784 441.71 241.034 454.072 219.758 469.158C210.292 467.264 163.836 446.048 154.452 439.694C145.426 433.584 151.53 424.962 159.25 422.006Z" fill="black"/>
<path d="M746.804 83.6763C739.996 84.3263 682.816 53.5443 680.034 50.5703C672.376 42.3845 680.248 32.9389 692.984 34.0957L693.65 34.6609C699.194 39.3249 706.256 42.3331 712.666 45.6535L737.434 58.4803C749.762 64.8703 763.148 72.3003 746.804 83.6763Z" fill="black"/>
<path d="M713.094 32.1074C735.108 39.0654 775.074 60.384 796.782 70.834C784.946 77.266 766.178 83.016 753.022 86.594C750.718 85.848 748.85 84.972 746.804 83.676C763.148 72.3 749.762 64.87 737.434 58.48L712.666 45.6532C706.256 42.3328 699.194 39.3246 693.65 34.6606L692.984 34.0954C697.744 34.1148 709.574 35.301 713.094 32.1074Z" fill="#FECA04"/>
<path d="M784.358 201.174L784.1 200.36C782.318 194.932 780.714 153.044 781.238 146.722C782.246 134.528 794.684 133.394 800.886 142.244C800.322 155.284 801.396 168.346 801.774 181.386C802.048 190.842 804.596 200.252 795.34 205.852C790.936 205.358 787.808 203.822 784.358 201.174Z" fill="black"/>
<path d="M746.804 260.102C742.066 262.064 736.732 262.844 733.426 257.842C723.202 242.38 751.696 235.372 761.828 230.612C770.916 226.344 785.448 215.938 795.34 218.228C818.074 239.484 758.888 248.866 746.804 260.102Z" fill="black"/>
<path d="M800.886 142.244C805.006 143.382 808.582 144.7 811.556 147.952C813.084 155.232 815.78 234.018 811.702 240.098C805.096 249.946 762.534 261.638 749.4 266.898C748.066 264.656 747.452 262.606 746.804 260.102C758.888 248.866 818.074 239.484 795.34 218.228C794.778 213.91 794.77 210.164 795.34 205.852C804.596 200.252 802.048 190.842 801.774 181.386C801.396 168.346 800.322 155.284 800.886 142.244Z" fill="#FECA04"/>
<path d="M269.41 523.202C273.978 523.984 277.278 525.016 280.398 528.682C282.828 538.04 284.154 575.926 283.468 586.5C280.65 590.58 273.524 595.65 271.42 588.062C272.49 578.994 271.676 531.676 269.41 523.202Z" fill="#FECA04"/>
<path d="M269.41 607.008C285.566 603.788 289.5 619.772 274.842 628.014C267.012 632.416 226.584 651.158 220.204 652.346C216.888 652.964 214.064 650.314 211.784 648.25C230.27 632.872 273.694 628.842 269.41 607.008Z" fill="#FECA04"/>
<path d="M263.136 591.758C254.49 589.708 253.192 586.13 252.712 577.404C252.12 566.68 250.056 533.424 251.844 524.722C253.626 516.044 263.844 516.538 269.41 523.202C271.676 531.676 272.49 578.994 271.42 588.062C268.832 590.216 266.32 590.882 263.136 591.758Z" fill="black"/>
<path d="M206.896 648.25C201.19 646.588 194.64 640.524 198.152 634.116C202.034 627.038 222.25 620.294 229.466 616.9C242.958 610.552 255.55 599.806 269.41 607.008C273.694 628.842 230.27 632.872 211.784 648.25H206.896Z" fill="black"/>
</svg>
