<svg width="744" height="462" viewBox="0 0 744 462" fill="none" xmlns="http://www.w3.org/2000/svg">
<path d="M637.79 1.50614C681.072 -4.94986 699.954 27.2381 711.546 63.3921C721.676 94.9901 751.088 211.528 741.152 242.046C731.432 271.898 708.51 274.83 685.062 286.914C687.498 298.344 686.838 310.004 686.868 321.608C687.014 375.494 687.984 436.206 621.582 444.11C585.926 448.354 548.778 445.106 513.016 443.162C471.938 440.928 430.77 438.692 389.642 437.754C331.814 436.434 264.072 445.636 206.46 452.096L152.184 457.918C140.868 459.036 129.332 459.642 118.124 461.484C98.248 461.162 77.104 463.358 60.1786 450.6C19.7324 420.112 9.67142 280.652 5.30802 233.544C2.09062 198.812 -8.33337 105.79 13.8724 76.5961C27.6114 58.5341 71.916 50.5281 93.472 46.5381C254.264 16.7681 419.15 33.2321 580.804 10.2961C599.84 7.59412 618.728 3.97014 637.79 1.50614ZM19.4514 151.83L20.4284 151.782C31.0486 151.206 41.7322 149.01 52.3008 147.728C148.172 136.104 244.53 128.906 340.738 120.742L404.828 115.088C415.632 114.186 427.394 112.334 438.186 113.184C474.086 116.018 479.01 172.168 439.444 180.09C429.096 182.162 417.698 182.15 407.128 183.162C278.272 195.494 150.194 205.054 21.441 221.336C23.4946 264.756 31.6408 381.802 56.1594 416.98C88.338 419.252 143.77 405.906 176.816 399.986C288.944 379.898 376.952 377.47 489.702 377.016C534.668 376.836 590.692 380.004 613.856 332.736C615.932 328.5 624.564 304.796 623.112 300.602C605.462 305.458 567.972 312.892 552.45 308.042C528.29 300.49 523.334 280.814 518.024 259.09L503.264 196.722C498.5 175.668 496.11 153.858 517.93 139.77C527.34 133.694 546.156 130.49 557.39 127.252C579.482 120.884 608.826 112.416 629.028 102.302C642.29 76.2521 647.966 58.2621 653.66 29.7501C639.732 28.1401 624.768 31.8041 611.032 34.1421C546.506 45.1261 481.646 50.1881 416.242 52.4281L302.504 56.1781C255.418 57.8901 64.648 63.2021 33.2572 87.4881C19.1068 98.4361 18.1582 134.832 19.4514 151.83ZM691.494 100.39C647.486 122.262 602.656 135.398 554.212 144.258C519.436 150.618 509.14 155.984 518.47 196.752L525.63 226.956C529.096 241.432 533.608 277.47 545.396 286.914C562.91 299.364 587.336 286.406 606.34 280.628C627.114 274.312 647.736 267.742 668.282 260.71C688.574 253.768 713.934 248.848 716.332 222.982C717.528 210.066 697.742 109.972 692.02 100.648L691.494 100.39Z" fill="black"/>
<path d="M653.66 29.75C675.228 37.906 679.642 56.494 685.062 76.79C667.34 85.778 647.722 95.9 629.028 102.302C642.29 76.252 647.966 58.262 653.66 29.75Z" fill="#FECA05"/>
<path d="M428.118 128.442C446.64 122.564 460.602 143.264 448.858 158.832C441.364 168.768 428.37 167.634 417.258 168.394L306.166 177.598C219.14 184.7 128.84 192.624 42.3824 204.31C34.7194 205.136 27.0884 206.164 19.4514 207.2C20.287 193.696 18.7204 180.14 19.4514 166.626C31.385 165.768 43.4566 163.788 55.3488 162.328C145.152 151.308 235.256 143.632 325.408 136.064L384.252 131.262C398.84 130.026 413.462 128.232 428.118 128.442Z" fill="#FECA05"/>
<path d="M623.112 300.602C637.932 297.36 652.738 294.142 667.472 290.52C667.576 317.876 667.676 380.964 647.002 401.862C629.19 419.87 590.272 417.038 566.602 416.992C500.286 416.858 434.18 410.291 367.754 412.185C283.264 414.597 200.004 430.726 115.858 437.286C90.546 439.26 70.012 441.397 56.1594 416.979C88.338 419.251 143.77 405.906 176.816 399.986C288.944 379.898 376.952 377.47 489.702 377.016C534.668 376.836 590.692 380.004 613.856 332.736C615.932 328.5 624.564 304.796 623.112 300.602Z" fill="#FECA05"/>
<path d="M694.408 175.564C697.07 175.798 704.168 212.084 704.218 217.578C704.312 228.172 698.208 234.426 689.266 238.562C685.062 240.506 647.686 254.64 645.764 254.606L644.938 253.258C639.8 238.38 633.822 212.264 631.214 196.86C653.108 190.538 673.568 181.602 694.408 175.564Z" fill="#FECA05"/>
<path d="M613.86 202.2L615.226 202.128C617.296 204.182 630.178 254.086 631.214 258.76C618.722 262.326 568.914 276.554 563.126 273.52C553.334 269.452 544.82 229.992 544.006 219.114C551.688 215.576 602.888 203.504 613.86 202.2Z" fill="#FECA05"/>
<path d="M685.062 119.966C687.982 125.112 689.538 148.548 694.408 159.026C684.274 162.888 674.424 167.476 664.266 171.318C623.97 186.564 583.656 191.818 544.006 204.31C534.66 206.162 534.496 175.034 536.418 170.606C541.07 159.89 553.972 159.8 563.86 157.512C605.178 147.942 645.606 135.596 685.062 119.966Z" fill="#FECA05"/>
<path d="M503.85 335.482C511.34 334.642 535.754 334.774 522.74 347.904C519.896 350.774 505.564 350.29 500.988 350.494C497.086 350.572 467.206 351.404 479.286 338.506C483.71 333.782 497.642 335.494 503.85 335.482Z" fill="black"/>
<path d="M376.92 341.67C383.67 340.46 385.22 344.954 386.896 350.494C383.324 359.942 358.042 358.2 348.64 358.84C341.134 359.286 335.318 352.77 339.836 347.548C344.442 342.226 369.038 342.558 376.92 341.67Z" fill="black"/>
<path d="M236.602 354.479C242.14 353.021 247.8 354.376 248.26 360.838C249.05 371.926 216.98 370.536 210.498 371.106C199.972 373.16 196.34 364.754 200.73 359.418C203.682 355.83 230.822 354.701 236.602 354.479Z" fill="black"/>
<path d="M304.93 347.184C319.784 345.476 323.16 357.886 311.464 361.106C303.944 363.178 289.984 363.322 281.75 364.026C272.96 365.5 263.008 360.564 269.156 353.268C273.716 347.854 297.206 347.786 304.93 347.184Z" fill="black"/>
<path d="M444.75 338.468C450.312 337.566 455.464 337.632 456.832 344.042C459.492 356.508 424.78 353.808 418.276 354.48C410.922 354.634 402.084 347.822 410.112 341.436C414.85 337.666 438.242 337.868 444.75 338.468Z" fill="black"/>
<path d="M580.986 333.502C589.91 332.576 601.852 337.456 593.95 345.414C588.872 350.528 570.392 348.915 563.126 348.745C559.392 348.903 555.744 348.951 552.014 348.745C547.974 346.387 544.526 341.06 548.514 336.82C553.126 331.914 573.816 333.51 580.986 333.502Z" fill="black"/>
<path d="M172.908 361.202C176.544 360.832 180.2 364.562 180.73 367.964C182.404 378.74 142.68 378.868 136.846 379.338C132.728 378.844 129.566 376.478 129.156 371.992C128.258 362.158 163.934 361.682 172.908 361.202Z" fill="black"/>
<path d="M100.924 367.196C106.92 366.152 114.962 371.608 110.666 378.116C106.622 384.248 81.598 387 74.004 388.416C63.948 390.31 56.9188 378.33 68.258 373.922C73.554 371.864 95.224 367.982 100.924 367.196Z" fill="black"/>
<path d="M230.654 300.602C239.488 299.24 248.152 304.222 242.2 311.322C238.288 315.986 230.036 315.472 224.52 316.122L200.274 318.938C170.18 322.392 139.914 325.256 109.884 329.128C100.044 330.136 95.608 322.256 100.734 316.404C104.548 312.052 122.21 312.226 127.78 311.67L165.03 307.724C186.796 305.418 208.822 301.844 230.654 300.602Z" fill="black"/>
<path d="M300.342 237.154C306.068 237.896 309.724 243.098 306.112 248.58C302.724 253.72 286.946 253.104 281.516 253.578L252.488 256.29C205.572 260.95 146.95 264.886 100.924 273.52C94.898 272.674 90.866 265.854 95.428 260.742C99.566 256.11 123.772 255.636 129.99 254.932L182.84 248.968C221.968 244.896 261.118 240.19 300.342 237.154Z" fill="black"/>
</svg>
