<?xml version="1.0" encoding="utf-8" ?>
<svg xmlns="http://www.w3.org/2000/svg" xmlns:xlink="http://www.w3.org/1999/xlink" width="1024" height="1024">
	<path transform="scale(2 2)" d="M272.498 104.748C312.998 101.679 362.148 114.737 390.544 144.662C397.165 151.639 404.394 158.551 410.728 165.427C449.74 207.772 447.956 258.29 417.315 305.746C380.761 362.36 321.701 396.227 255.887 404.999C250.48 405.719 244.961 405.892 239.625 407.048C234.015 406.754 228.499 407.093 222.886 407.131C188.13 407.367 150.518 396.866 123.354 374.85C110.118 364.123 96.8592 340.748 86.8395 325.207C58.5196 281.283 74.2062 225.984 105.304 187.667C143.031 141.182 199.673 112.064 258.958 105.911C263.464 105.444 267.99 105.215 272.498 104.748ZM275.672 116.501C267.272 117.114 258.781 117.537 250.459 118.864C195.571 127.613 139.619 158.486 107.541 204.752C79.9643 244.526 71.0176 299.764 111.711 334.785C132.325 352.525 160.382 362.2 187.27 364.139C194.904 364.689 202.564 363.971 210.19 364.376C215.099 363.523 220.14 363.423 225.09 362.847C276.033 356.912 326.955 334.334 363.262 297.895C390.492 270.566 408.855 233.725 401.93 194.25C391.295 133.621 329.81 115.533 275.672 116.501ZM386.498 289.359C374.374 304.351 363.195 314.42 348.31 326.255C344.262 329.474 338.021 332.96 334.638 336.184L333.555 337.201C335.627 338.692 336.95 340.428 338.45 342.473C347.882 335.626 357.593 329.655 366.36 321.827C360.901 314.123 366.995 310.53 372.712 316.942C379.277 309.782 385.866 302.677 392.288 295.383C390.491 293.242 388.587 291.216 386.498 289.359ZM294.971 356.632C296.053 358.508 297.092 360.431 298.358 362.191C303.546 359.292 326.197 348.603 331.616 346.873C330.165 344.716 328.663 342.632 327.076 340.573C316.756 346.452 306.006 352.231 294.971 356.632ZM404.874 259.066C400.627 267.13 396.518 275.254 391.467 282.861C393.384 284.614 395.304 286.354 397.119 288.215C401.969 280.844 406.457 272.136 411.217 265.341C409.254 263.062 407.052 261.126 404.874 259.066ZM214.192 375.784C215.461 377.943 216.847 380.111 218.49 382.007C229.604 380.339 240.938 378.17 251.877 376.623C250.837 374.606 249.614 372.948 248.25 371.149C238.297 373.614 224.367 374.824 214.192 375.784ZM257.059 369.358C257.751 370.944 258.384 372.528 259.504 373.87C270.715 373.271 280.689 368.659 291.225 365.493C290.102 363.497 289.017 361.463 287.779 359.536C277.386 363.807 266.841 365.616 257.059 369.358ZM121.398 355.806C126.234 362.461 133.61 368.156 140.772 372.14C144.944 371.952 155.76 377.692 163.71 377.705C158.283 368.982 155.213 370.83 146.098 367.538C137.507 364.436 129.161 360.626 121.398 355.806ZM407.824 251.371C410.143 253.236 412.518 254.938 414.956 256.642C416.296 250.353 417.898 240.264 418.106 234.231C418.26 229.755 417.617 225.388 417.979 220.892C416.946 220.029 415.849 219.199 414.956 218.19C412.355 230.276 411.941 238.48 407.824 251.371ZM171.465 373.87C173.001 375.974 174.878 377.996 176.703 379.85C184.599 380.261 202.283 383.734 208.448 382.007C207.168 379.847 205.561 377.656 203.888 375.784C192 375.986 182.967 374.696 171.465 373.87Z"/>
	<path fill="#FECA04" transform="scale(2 2)" d="M140.772 372.14C144.944 371.952 155.76 377.692 163.71 377.705C165.44 378.945 169.718 384.545 171.465 386.516C162.567 384.215 148.073 377.552 140.772 372.14Z"/>
	<path fill="#FECA04" transform="scale(2 2)" d="M412.491 186.675C417.107 190.604 424.926 210.424 426.345 216.029C423.044 214.708 418.922 210.483 414.956 208.477C415.079 201.123 413.727 193.895 412.491 186.675Z"/>
	<path fill="#FECA04" transform="scale(2 2)" d="M176.703 379.85C184.599 380.261 202.283 383.734 208.448 382.007C212.068 386.091 214.769 390.965 218.49 395.036C211.525 395.149 204.49 394.202 197.601 393.281C185.178 391.619 184.813 390.472 176.703 379.85Z"/>
	<path fill="#FECA04" transform="scale(2 2)" d="M417.979 220.892C421.682 224.168 426.088 227.905 428.544 232.211C428.855 243.477 427.551 254.676 423.751 265.341C421.217 262.768 416.82 259.422 414.956 256.642C416.296 250.353 417.898 240.264 418.106 234.231C418.26 229.755 417.617 225.388 417.979 220.892Z"/>
	<path fill="#FECA04" transform="scale(2 2)" d="M411.217 265.341C414.625 267.904 417.582 271.182 420.589 274.199C416.687 283.594 412.181 292.162 406.642 300.694C403.73 296.217 400.325 292.435 397.119 288.215C401.969 280.844 406.457 272.136 411.217 265.341Z"/>
	<path fill="#FECA04" transform="scale(2 2)" d="M392.288 295.383C395.879 299.251 398.518 303.792 401.931 307.776C395.556 316.216 388.834 323.435 382.175 331.511C379.345 326.698 375.142 321.462 372.712 316.942C379.277 309.782 385.866 302.677 392.288 295.383Z"/>
	<path fill="#FECA04" transform="scale(2 2)" d="M251.877 376.623C255.525 381.934 259.122 387.101 263.455 391.895C252.621 393.763 238.007 395.71 227.156 395.036C224.592 390.349 221.302 386.465 218.49 382.007C229.604 380.339 240.938 378.17 251.877 376.623Z"/>
	<path fill="#FECA04" transform="scale(2 2)" d="M291.225 365.493C294.875 371.266 298.685 376.669 302.943 382.007C292.384 385.232 281.993 388.39 271.102 390.289C267.392 385.016 262.433 379.56 259.504 373.87C270.715 373.271 280.689 368.659 291.225 365.493Z"/>
	<path fill="#FECA04" transform="scale(2 2)" d="M366.36 321.827C369.93 326.625 372.945 331.629 375.154 337.201C367.096 345.134 358.093 352.371 348.43 358.268C345.309 352.838 341.956 347.658 338.45 342.473C347.882 335.626 357.593 329.655 366.36 321.827Z"/>
	<path fill="#FECA04" transform="scale(2 2)" d="M331.616 346.873C335.317 351.996 338.699 357.746 341.565 363.375C330.757 368.303 321.246 375.289 309.794 379.046C306.971 375.816 299.936 365.814 298.358 362.191C303.546 359.292 326.197 348.603 331.616 346.873Z"/>
	<path transform="scale(2 2)" d="M286.162 143.369L286.46 143.403C285.94 144.51 280.255 147.825 278.823 148.896C270.649 155.011 264.708 162.543 258.707 170.75C262.426 170.037 265.881 168.406 269.472 167.246C293.102 159.611 322.382 160.596 343.288 174.715C362.735 187.849 367.603 210.398 354.21 229.848C334.214 258.886 286.222 265.635 256.026 250.357C251.856 248.247 248.19 245.582 244.368 242.933C240.766 243.902 237.864 245.326 234.912 247.607C225.073 265.202 225.243 282.221 207.704 299.101C192.846 313.4 176.296 318.681 156.338 318.344C105.715 310.034 117.099 249.06 145.866 221.239C150.92 216.351 156.496 212.349 162.342 208.477C145.339 207.189 128.835 211.266 112.638 216.029C126.226 203.045 148.695 198.624 166.721 199.264C194.227 200.239 215.358 216.082 233.207 235.302C234.957 234.644 236.674 233.845 238.394 233.108C231.671 198.411 244.555 147.332 286.162 143.369ZM192.835 218.19C184.549 218.133 170.883 229.137 165.082 234.85C148.936 250.752 136.07 288.13 153.995 306.234C157.36 309.631 162.152 310.897 164.807 313.492C184.841 307.821 202.474 300.37 211.391 279.088C214.456 271.773 216.246 263.937 219.403 256.642C218.311 254.635 217.955 252.014 217.012 249.869C213.392 241.633 207.8 233.23 201.691 226.57C199.502 224.184 195.157 220.947 193.813 218.19C193.501 218.147 193.152 218.184 192.835 218.19ZM281.439 247.607C283.412 248.243 285.735 248.364 287.794 248.581C313.096 251.246 339.518 243.048 353.299 220.246C352.681 219.186 352.339 218.048 351.836 216.94C345.569 203.122 333.997 193.746 319.45 189.413C303.388 184.628 265.985 187.711 260.171 207.971C256.047 222.342 264.5 237.377 276.616 244.831C277.71 245.504 280.876 246.625 281.439 247.607ZM254.036 181.736C245.921 202.358 248.621 213.276 249.841 233.108C259.046 239.934 269.846 246.353 281.439 247.607C280.876 246.625 277.71 245.504 276.616 244.831C264.5 237.377 256.047 222.342 260.171 207.971C265.985 187.711 303.388 184.628 319.45 189.413C333.997 193.746 345.569 203.122 351.836 216.94C352.339 218.048 352.681 219.186 353.299 220.246C362.204 198.379 350.676 183.95 330.069 175.778C306.227 166.323 276.623 170.479 254.036 181.736ZM175.14 210.656C157.072 218.616 140.524 235.657 133.384 253.985C121.164 285.353 127.768 314.015 164.807 313.492C162.152 310.897 157.36 309.631 153.995 306.234C136.07 288.13 148.936 250.752 165.082 234.85C170.883 229.137 184.549 218.133 192.835 218.19C187.303 214.651 181.18 213.043 175.14 210.656ZM193.813 218.19C195.157 220.947 199.502 224.184 201.691 226.57C207.8 233.23 213.392 241.633 217.012 249.869C217.955 252.014 218.311 254.635 219.403 256.642C221.003 252.049 222.728 247.494 224.419 242.933C218.229 233.737 203.814 222.948 193.813 218.19Z"/>
	<path fill="#FECA04" transform="scale(2 2)" d="M281.439 247.607C280.876 246.625 277.71 245.504 276.616 244.831C264.5 237.377 256.047 222.342 260.171 207.971C265.985 187.711 303.388 184.628 319.45 189.413C333.997 193.746 345.569 203.122 351.836 216.94C352.339 218.048 352.681 219.186 353.299 220.246C339.518 243.048 313.096 251.246 287.794 248.581C285.735 248.364 283.412 248.243 281.439 247.607ZM316.126 199.25L316.126 199.25C307.266 209.377 289.551 217.785 276.508 219.124C277.041 219.622 277.398 220.153 278.128 220.284L278.235 220.246C285.805 242.568 329.377 231.973 323.329 208.247C322.778 206.084 321.921 204.088 319.953 202.906C318.997 201.692 317.721 199.57 316.126 199.25Z"/>
	<path transform="scale(2 2)" d="M275.672 216.029C266.72 196.217 305.74 184.969 316.126 199.25L316.126 199.25C299.217 199.382 287.487 202.579 275.672 216.029Z"/>
	<path transform="scale(2 2)" d="M316.126 199.25C317.721 199.57 318.997 201.692 319.953 202.906C321.921 204.088 322.778 206.084 323.329 208.247C329.377 231.973 285.805 242.568 278.235 220.246L278.128 220.284C277.398 220.153 277.041 219.622 276.508 219.124C289.551 217.785 307.266 209.377 316.126 199.25L316.126 199.25ZM316.126 199.25L316.126 199.25C307.266 209.377 289.551 217.785 276.508 219.124C277.041 219.622 277.398 220.153 278.128 220.284L278.235 220.246C278.277 219.985 278.362 219.73 278.432 219.475C281.463 218.822 293.56 223.867 302.518 222.257C311.217 220.694 321.864 212.841 319.953 202.906C318.997 201.692 317.721 199.57 316.126 199.25Z"/>
	<path fill="#FECA04" transform="scale(2 2)" d="M192.835 218.19C193.152 218.184 193.501 218.147 193.813 218.19C195.157 220.947 199.502 224.184 201.691 226.57C207.8 233.23 213.392 241.633 217.012 249.869C217.955 252.014 218.311 254.635 219.403 256.642C216.246 263.937 214.456 271.773 211.391 279.088C202.474 300.37 184.841 307.821 164.807 313.492C162.152 310.897 157.36 309.631 153.995 306.234C136.07 288.13 148.936 250.752 165.082 234.85C170.883 229.137 184.549 218.133 192.835 218.19ZM165.838 276.235L165.838 276.235C166.046 276.255 166.298 276.335 166.484 276.235C176.814 292.999 206.494 274.48 201.33 254.781C200.461 251.469 195.469 243.47 191.014 244.712L191.014 244.03C184.057 248.368 174.622 268.321 165.838 276.235Z"/>
	<path transform="scale(2 2)" d="M165.838 276.235C161.327 277.046 157.038 271.152 155.832 267.542C150.455 251.445 169.034 232.342 186.52 241.289C187.528 242.205 188.522 243.159 189.568 244.03C172.825 240.799 160.285 259.736 165.838 276.235L165.838 276.235Z"/>
	<path transform="scale(2 2)" d="M165.838 276.235C174.622 268.321 184.057 248.368 191.014 244.03L191.014 244.712C195.469 243.47 200.461 251.469 201.33 254.781C206.494 274.48 176.814 292.999 166.484 276.235C166.298 276.335 166.046 276.255 165.838 276.235L165.838 276.235ZM165.838 276.235L165.838 276.235C166.046 276.255 166.298 276.335 166.484 276.235C184.617 277.054 196.739 261.8 191.014 244.712L191.014 244.03C184.057 248.368 174.622 268.321 165.838 276.235Z"/>
</svg>
