<?xml version="1.0" encoding="utf-8" ?>
<svg xmlns="http://www.w3.org/2000/svg" xmlns:xlink="http://www.w3.org/1999/xlink" width="1024" height="1024">
	<path transform="scale(2 2)" d="M363.015 426.536C368.011 400.375 341.372 408.428 326.708 414.622C310.244 421.578 283.022 431.491 268.363 415.598C260.741 407.334 258.566 392.232 267.775 384.214C280.331 373.283 298.891 390.185 284.594 401.294L284.323 401.501C307.059 407.393 324.317 389.137 344.087 382.485L344.453 382.364C341.69 384.535 337.835 385.77 334.832 387.677C322.65 395.412 291.539 417.159 278.183 399.767L277.978 399.495C296.266 391.529 270.918 375.026 266.025 394.222C263.275 405.011 271.865 413.493 281.758 415.874C302.277 420.813 320.252 407.154 339.26 402.871C352.427 399.904 359.167 403.088 366.285 413.221C366.739 417.689 364.669 422.485 363.015 426.536Z"/>
	<path transform="scale(2 2)" d="M225.44 401.501C210.428 388.081 232.33 370.566 245.865 383.874C254.409 392.274 251.227 406.633 243.514 414.357C215.925 441.99 168.488 393.895 150.5 410.803C147.45 413.669 147.104 417.179 147.374 421.064C144.608 413.905 144.768 408.251 151.826 404.212C178.051 393.249 197.074 417.052 222.639 414.837C228.731 414.309 234.872 412.208 238.881 407.378C249.887 394.119 233.199 379.639 226.954 388.887C223.543 393.94 227.261 396.919 231.481 399.495C214.325 419.818 181.044 384.668 160.911 380.859C158.579 380.418 155.601 380.482 153.449 379.55C182.71 380.969 200.04 407.399 225.44 401.501Z"/>
	<path transform="scale(2 2)" d="M107.258 251.215C99.1738 249.272 94.9446 249.953 89.4758 242.31C68.1905 212.564 114.404 159.444 88.043 136.058C85.8903 134.148 83.1575 134.161 82.4781 133.218L82.6309 132.842C87.0907 129.989 90.7571 132.37 94.5507 135.168C120.948 165.916 75.4774 216.915 94.9455 239.844C102.125 248.3 120.389 246.558 120.941 234.483C121.335 225.888 114.473 223.922 107.814 227.87C108.347 230.994 109.333 233.774 110.508 236.699C92.4095 228.073 106.179 204.904 111.679 192.232C116.306 181.572 120.674 170.718 122.673 159.221C122.741 158.826 123.547 149.767 123.842 154.169C123.383 170.678 120.544 182.316 114.423 197.365C110.982 205.825 106.623 213.971 106.74 223.344C128.26 212.693 136.304 243.461 114.726 251.215C114.177 253.673 113.292 255.464 111.748 257.474C120.986 258.047 128.764 267.215 128.273 276.381C127.635 288.312 115.823 292.334 106.74 286.52C104.544 303.024 114.085 317.148 118.258 332.546C120.608 341.212 121.165 350.13 120.751 359.074C118.719 352.828 118.511 344.93 116.25 337.64C109.998 317.476 89.3715 290.915 110.018 273.788C109.685 276.659 109.313 279.474 108.733 282.309L108.994 282.521C114.861 287.22 122.44 282.688 121.441 275.109C119.009 256.67 83.3577 258.195 92.0121 300.046C96.5491 321.985 115.038 360.085 87.2739 374.049C85.9535 374.4 84.5421 374.546 83.1923 374.762C111.769 358.939 84.2026 313.536 82.6649 290.255C81.9209 278.99 84.7166 264.678 95.3471 258.568C100.547 255.579 102.877 256.213 107.258 251.215Z"/>
	<path transform="scale(2 2)" d="M419.471 134.238C421.408 132.923 429.099 129.735 429.613 134.09C426.306 135.779 424.585 134.578 421.364 139.137C400.938 168.054 443.922 213.799 423.291 243.362C418.423 250.338 412.522 252.91 404.391 252.74C403.291 253.596 402.383 254.649 401.446 255.675L401.683 255.957C405.105 259.962 409.904 258.612 414.361 260.467C425.502 265.105 430.388 279.631 429.587 290.81C427.759 316.325 402.767 351.18 423.622 372.549C424.356 373.3 430.086 375.49 427.277 376.191C419.685 371.504 418.046 375.295 412.511 363.423C399.176 334.821 427.389 302.428 421.016 281.728C416.533 267.166 396.788 257.894 390.281 271.619C383.978 284.914 408.326 294.831 398.951 275.597C404.619 278.581 407.475 284.64 408.363 290.755C412.278 317.706 386.505 336.226 388.653 364.891C388.82 367.123 389.227 369.331 389.232 371.576C378.592 335.206 409.927 311.269 404.391 285.096C389.838 303.873 370.62 267.729 398.951 260.406C396.418 257.305 395.703 254.131 398.951 251.215C369.137 242.888 392.328 207.973 404.391 227.87C407.041 215.332 402.925 209.608 397.222 198.945C387.053 179.933 383.805 160.543 389.986 139.964C390.024 142.465 389.272 145.076 389.079 147.588C388.064 160.779 392.146 174.324 397.708 186.144C404.819 201.259 418.446 224.062 398.951 236.699C400.109 234.321 403.929 228.278 399.975 226.797C392.895 224.145 386.728 233.215 390.149 240.231C393.286 246.663 401.51 248.428 407.64 245.387C425.052 236.751 422.278 219.864 418.079 204.718C413.754 189.118 398.235 144.871 419.471 134.238Z"/>
	<path transform="scale(2 2)" d="M358.439 106.507C370.887 103.784 378.077 99.3364 387.931 91.6094C396.603 84.81 409.596 73.0631 421.239 80.7481C433.549 88.8736 426.031 114.199 419.109 123.941L417.653 125.964C406.097 139.023 402.031 138.6 402.225 159.258C400.661 153.401 401.102 141.607 402.939 135.872C404.719 130.315 409.395 125.831 412.53 121.05C424.276 103.137 425.826 73.2608 396.628 95.0207C386.503 102.566 376.158 111.439 363.262 113.462C333.659 118.105 304.485 88.3321 281.412 96.8248C275.9 98.8539 270.404 102.138 267.637 107.525C259.728 122.921 281.799 133.284 285.139 119.234C283.987 114.541 278.401 113.22 280.214 110.454C282.111 107.561 287.168 105.84 290.439 105.368C314.36 101.917 339.922 132.269 373.25 132.053C377.084 132.028 380.949 131.236 384.751 131.949C363.063 135.829 345.935 131.997 326.482 122.158C313.883 115.786 299.047 104.701 284.323 110.509C300.521 118.701 286.205 136.162 271.938 132.151C264.41 130.034 263.136 125.405 259.724 119.234C250.638 112.692 248.811 130.643 234.679 130.916C221.863 131.163 214.594 119.82 224.367 110.509C206.589 102.523 176.499 134.177 143.934 130.18C140.688 129.781 137.511 129.066 134.248 128.721C137.47 128.075 140.826 128.811 144.08 128.841C161.112 129.001 175.622 122.138 190.111 113.907C200.163 108.197 215.634 98.5177 227.312 105.396C237.063 111.138 227.81 114.592 226.647 116.639C222.999 123.059 238.456 130.324 244.514 118.116C249.07 108.933 242.105 98.086 233.662 94.1916C207.743 82.2359 179.844 117.012 151.826 103.78C145.258 99.4482 143.613 94.1771 145.444 86.7505C147.811 99.5076 160.412 102.388 171.786 100.132C190.478 96.4252 203.057 85.826 223.763 87.1197C238.189 88.0211 252.874 97.1696 251.58 112.957C254.586 112.249 256.714 112.189 259.724 112.957C261.923 88.8328 287.727 82.8303 307.744 89.6236C319.439 93.5925 371.028 117.328 363.015 83.5449C367.895 92.9635 368.085 100.649 358.439 106.507Z"/>
	<path fill="#FECA04" transform="scale(2 2)" d="M285.139 119.234C281.799 133.284 259.728 122.921 267.637 107.525C270.404 102.138 275.9 98.8539 281.412 96.8248C304.485 88.3321 333.659 118.105 363.262 113.462C376.158 111.439 386.503 102.566 396.628 95.0207C425.826 73.2608 424.276 103.137 412.53 121.05C409.395 125.831 404.719 130.315 402.939 135.872C401.102 141.607 400.661 153.401 402.225 159.258C402.031 138.6 406.097 139.023 417.653 125.964C418.182 128.739 418.832 131.486 419.471 134.238C398.235 144.871 413.754 189.118 418.079 204.718C422.278 219.864 425.052 236.751 407.64 245.387C401.51 248.428 393.286 246.663 390.149 240.231C386.728 233.215 392.895 224.145 399.975 226.797C403.929 228.278 400.109 234.321 398.951 236.699C418.446 224.062 404.819 201.259 397.708 186.144C392.146 174.324 388.064 160.779 389.079 147.588C389.272 145.076 390.024 142.465 389.986 139.964C390.4 136.184 394.17 130.578 395.664 126.83C392.139 128.785 388.259 129.835 384.751 131.949C380.949 131.236 377.084 132.028 373.25 132.053C339.922 132.269 314.36 101.917 290.439 105.368C287.168 105.84 282.111 107.561 280.214 110.454C278.401 113.22 283.987 114.541 285.139 119.234Z"/>
	<path fill="#FECA04" transform="scale(2 2)" d="M87.2739 374.049C115.038 360.085 96.5491 321.985 92.0121 300.046C83.3577 258.195 119.009 256.67 121.441 275.109C122.44 282.688 114.861 287.22 108.994 282.521L108.733 282.309C109.313 279.474 109.685 276.659 110.018 273.788C89.3715 290.915 109.998 317.476 116.25 337.64C118.511 344.93 118.719 352.828 120.751 359.074C119.131 370.773 117.602 384.626 111.748 395.028C126.502 386.661 131.887 377.672 153.449 379.55C155.601 380.482 158.579 380.418 160.911 380.859C181.044 384.668 214.325 419.818 231.481 399.495C227.261 396.919 223.543 393.94 226.954 388.887C233.199 379.639 249.887 394.119 238.881 407.378C234.872 412.208 228.731 414.309 222.639 414.837C197.074 417.052 178.051 393.249 151.826 404.212C148.179 403.692 143.066 404.376 139.141 404.212C126.306 408.369 112.617 436.085 94.8104 429.347C77.679 422.864 86.5608 397.467 91.5133 385.27C87.3381 384.214 84.7564 382.838 81.8509 379.55C82.7801 380.091 83.7782 380.504 84.7576 380.945C86.4159 378.873 86.8667 376.594 87.2739 374.049Z"/>
	<path transform="scale(2 2)" d="M110.018 350.772L109.993 351.085C108.534 367.476 104.439 373.95 96.6173 387.447C85.9809 405.801 88.3227 440.589 119.516 410.264C130.192 399.885 137.981 393.487 154.249 393.673C160.614 393.746 171.683 396.128 176.502 400.342C166.448 397.288 147.517 396.56 139.141 404.212C126.306 408.369 112.617 436.085 94.8104 429.347C77.679 422.864 86.5608 397.467 91.5133 385.27C87.3381 384.214 84.7564 382.838 81.8509 379.55C82.7801 380.091 83.7782 380.504 84.7576 380.945C102.924 382.398 105.539 362.988 110.018 350.772Z"/>
	<path fill="#FECA04" transform="scale(2 2)" d="M99.26 133.507C97.2935 129.738 94.5672 126.432 92.2681 122.869C82.5914 107.873 79.0955 72.5021 104.099 79.6596C114.798 82.722 120.75 91.1471 129.079 97.6541C133.608 101.192 138.65 103.877 143.734 106.507C146.5 105.871 149.142 104.698 151.826 103.78C179.844 117.012 207.743 82.2359 233.662 94.1916C242.105 98.086 249.07 108.933 244.514 118.116C238.456 130.324 222.999 123.059 226.647 116.639C227.81 114.592 237.063 111.138 227.312 105.396C215.634 98.5177 200.163 108.197 190.111 113.907C175.622 122.138 161.112 129.001 144.08 128.841C140.826 128.811 137.47 128.075 134.248 128.721C129.052 126 123.285 124.663 117.903 122.358C121.68 134.403 124.887 140.525 123.842 154.169C123.547 149.767 122.741 158.826 122.673 159.221C120.674 170.718 116.306 181.572 111.679 192.232C106.179 204.904 92.4095 228.073 110.508 236.699C109.333 233.774 108.347 230.994 107.814 227.87C114.473 223.922 121.335 225.888 120.941 234.483C120.389 246.558 102.125 248.3 94.9455 239.844C75.4774 216.915 120.948 165.916 94.5507 135.168C96.0614 133.978 97.4155 133.794 99.26 133.507Z"/>
	<path transform="scale(2 2)" d="M99.26 133.507C97.2935 129.738 94.5672 126.432 92.2681 122.869C82.5914 107.873 79.0955 72.5021 104.099 79.6596C114.798 82.722 120.75 91.1471 129.079 97.6541C133.608 101.192 138.65 103.877 143.734 106.507C152.092 111.255 163.169 110.322 172.222 108.556C129.62 127.718 112.454 79.3081 96.1537 86.5787C85.7371 91.2251 94.144 111.997 97.729 118.598C110.753 142.578 119.024 150.451 104.272 177.833C108.507 163.777 109.59 145.367 99.26 133.507Z"/>
	<path fill="#FECA04" transform="scale(2 2)" d="M398.951 275.597C408.326 294.831 383.978 284.914 390.281 271.619C396.788 257.894 416.533 267.166 421.016 281.728C427.389 302.428 399.176 334.821 412.511 363.423C418.046 375.295 419.685 371.504 427.277 376.191C427.53 378.297 427.852 380.225 427.749 382.364C429.593 381.784 430.862 380.297 432.624 379.55C429.011 383.267 426.252 384.95 421.184 386.167L421.305 386.495C422.283 389.113 423.852 391.53 424.701 394.18C430.145 411.183 426.84 440.424 402.372 428.794C387.96 421.944 375.943 403.507 360.3 400.342C363.456 403.895 367.396 408.001 366.285 413.221C359.167 403.088 352.427 399.904 339.26 402.871C320.252 407.154 302.277 420.813 281.758 415.874C271.865 413.493 263.275 405.011 266.025 394.222C270.918 375.026 296.266 391.529 277.978 399.495L278.183 399.767C291.539 417.159 322.65 395.412 334.832 387.677C337.835 385.77 341.69 384.535 344.453 382.364C356.473 374.588 381.969 381.959 392.768 390.533C393.612 389.019 394.681 387.597 395.664 386.167C392.658 381.644 390.579 376.831 389.232 371.576C389.227 369.331 388.82 367.123 388.653 364.891C386.505 336.226 412.278 317.706 408.363 290.755C407.475 284.64 404.619 278.581 398.951 275.597Z"/>
	<path transform="scale(2 2)" d="M338.543 399.495C350.922 390.524 366.195 392.915 378.412 400.853C387.957 407.054 416.395 438.929 419.386 410.599C421.272 392.737 410.982 386.128 405.318 372.036C403.284 366.977 402.785 360.935 402.225 355.538C407.179 369.133 411.903 380.062 427.749 382.364C429.593 381.784 430.862 380.297 432.624 379.55C429.011 383.267 426.252 384.95 421.184 386.167L421.305 386.495C422.283 389.113 423.852 391.53 424.701 394.18C430.145 411.183 426.84 440.424 402.372 428.794C387.96 421.944 375.943 403.507 360.3 400.342C353.693 397.734 345.35 397.865 338.543 399.495Z"/>
	<path transform="scale(2 2)" d="M255.418 123.439C259.027 125.716 261.126 128.285 264.071 131.325C272.237 139.755 288.677 136.556 299.043 136.036C315.002 135.234 330.649 137.401 346.308 140.313C353.414 141.635 359.86 143.668 367.156 142.379C370.762 141.742 375.529 140.115 378.464 143.288C386.947 152.46 381.252 172.105 379.516 183.212C377.066 198.884 377.671 234.839 383.41 246.987C384.793 249.916 391.554 255.817 391.449 258.259C391.393 259.577 386.73 264.334 385.729 265.665C373.412 282.023 376.882 343.269 381.061 361.357C385.228 379.395 381.537 373.687 369.444 370.734C353.519 366.846 327.315 374.653 310.06 375.337C300.113 375.731 280.429 374.015 271.838 376.646C262.811 379.411 263.514 384.806 257.691 388.278L255.418 388.278C249.863 386.37 247.776 381.05 242.661 378.287C233.034 373.089 220.473 374.947 210.029 375.349C195.045 375.926 180.55 374.797 165.748 372.514C159.507 371.551 153.132 370.393 146.805 370.337C142.81 370.301 137.848 374.313 134.114 372.119C120.72 364.247 126.99 363.924 130.833 357.254C132.419 354.502 130.139 347.834 130.231 344.364C130.821 322.176 138.432 282.786 127.277 262.825C125.708 260.016 123.957 259.143 123.105 255.675C123.995 252.712 125.527 250.073 126.761 247.255C134.602 229.357 133.001 202.151 131.518 182.68C130.785 173.054 126.188 147.079 133.69 140.073C138.333 135.737 145.355 139.762 150.739 140.408C162.208 141.784 173.457 137.983 184.586 135.819C203.891 132.065 213.918 136.014 231.324 136.643C245.772 137.165 246.12 132.162 255.418 123.439ZM256.485 135.168C245.29 148.13 235.748 147.818 220.24 146.664C205.368 145.556 193.241 145.568 178.384 147.626C168.275 149.026 158.339 150.617 148.126 149.253C144.75 148.802 141.266 147.978 137.863 147.909C138.313 173.429 150.911 237.239 134.237 254.583C132.978 255.892 131.264 256.682 129.656 257.474C131.758 259.395 134.278 261.365 135.911 263.711C148.937 282.42 139.579 336.184 142.49 359.756C151.658 359.658 160.649 361.403 169.682 362.746C183.605 364.817 197.37 365.333 211.413 364.391C223.719 363.565 247.557 361.07 255.143 373.987L255.418 374.049C272.835 357.863 296.022 365.673 317.384 364.321C335.672 363.163 356.257 356.312 373.809 362.732C373.587 359.451 372.52 356.295 371.759 353.115C365.363 326.382 361.843 280.808 377.001 258.307C362.644 231.638 369.13 198.473 371.541 169.428C372.022 163.628 371.637 157.884 371.933 152.1C353.657 156.339 336.572 146.532 318.705 144.919C300.395 143.266 278.903 149.893 262.296 139.587C260.451 138.442 258.262 135.887 256.485 135.168Z"/>
</svg>
