<?xml version="1.0" encoding="utf-8" ?>
<svg xmlns="http://www.w3.org/2000/svg" xmlns:xlink="http://www.w3.org/1999/xlink" width="1024" height="1024">
	<path transform="scale(2 2)" d="M370.995 70.7889C380.419 69.7903 378.827 96.8751 378.861 102.489C386.592 102.614 394.337 101.74 402.091 101.709C408.222 101.684 415.838 101.258 414.402 109.711C407.597 117.384 389.662 112.961 380.221 113.714L379.738 113.755C379.45 123.17 380.32 132.615 378.861 141.972C378.234 143.848 376.686 147.817 374.13 145.998C369.766 142.892 369.14 118.538 368.482 113.108C320.395 114.925 340.935 103.239 367.748 103.959C367.983 94.1032 360.861 73.8437 370.995 70.7889Z"/>
	<path transform="scale(2 2)" d="M305.051 191.276C328.156 182.046 364.111 173.845 387.978 184.117C422.865 199.132 424.164 254.537 386.607 268.626C363.955 277.123 318.889 271.715 304.566 288.919C294.614 300.874 293.231 357.793 293.056 373.117C292.776 397.616 297.007 421.975 269.369 432.218C255.812 437.242 238.14 437.284 224.944 431.073C192.476 415.792 191.736 355.505 193.636 325.878C193.89 321.923 195.865 310.458 195.366 307.499C195.116 306.021 192.38 304.544 197.182 304.079C198.244 305.631 197.472 308.769 197.555 310.582C198.469 330.481 203.046 346.134 205.31 364.824C209.121 378.091 214.629 407.883 227.978 415.167C238.127 420.705 245.765 419.22 256.185 419.753C277.602 413.989 277.752 403.419 277.759 382.84L277.687 359.784C277.532 338.593 278.051 298.227 290.791 280.163C314.477 246.579 392.463 269.937 397.982 233.576C399.452 223.889 396.673 211.664 390.832 203.785L390.683 203.562C386.285 197.129 378.411 193.699 370.995 192.279C357.53 188.107 332.653 189.625 318.156 190.353C314.238 190.55 308.713 191.679 305.051 191.276Z"/>
	<path transform="scale(2 2)" d="M201.127 202.992C199.524 174.549 209.071 132.627 219.215 106.796C220.676 103.073 221.995 99.0103 224.103 95.6053C245.94 60.3475 305.301 64.1961 307.066 112.075C307.401 121.172 305.02 130.072 303.311 138.936C299.974 156.25 297.059 173.65 295.192 191.19C294.667 196.125 294.515 201.152 293.684 206.044C315.015 202.633 335.805 196.612 357.309 193.868C360.415 193.471 368.729 193.502 370.995 192.279C378.411 193.699 386.285 197.129 390.683 203.562L390.832 203.785C396.673 211.664 399.452 223.889 397.982 233.576C392.463 269.937 314.477 246.579 290.791 280.163C278.051 298.227 277.532 338.593 277.687 359.784L277.759 382.84C277.752 403.419 277.602 413.989 256.185 419.753C245.765 419.22 238.127 420.705 227.978 415.167C214.629 407.883 209.121 378.091 205.31 364.824C206.43 361.184 205.317 321.217 205.932 312.68C206.23 308.552 208.3 295.393 207.005 292.306C178.786 303.019 135.526 313.994 111.222 289.354C102.905 280.922 97.2362 259.126 97.3715 247.544C97.7221 217.524 121.543 211.96 145.008 208.07C163.829 204.95 182.053 202.792 201.127 202.992ZM284.002 93.8802C282.99 94.9217 282.042 95.8825 280.798 96.6494C284.357 98.392 286.909 103.765 282.525 104.916C280.361 105.484 278.076 104.618 275.804 105.34C270.299 107.092 262.025 118.964 258.734 124.084C245.779 144.239 238.809 169.25 236.8 192.985C235.74 205.514 237.77 229.399 221.478 233.03C212.328 235.069 202.492 234.784 193.187 236.13C177.661 238.376 143.122 251.163 135.368 266.272C133.954 273.098 132.475 276.872 129.936 283.334C157.078 293.353 183.566 283.543 210.114 275.331C216.111 273.476 240.277 264.108 244.259 272.695C244.75 273.754 241.95 284.113 241.555 287.242C237.244 321.384 231.261 348.862 243.211 383.156C244.51 386.884 246.358 390.605 247.327 394.417C246.364 397.407 245.03 398.221 242.185 399.031C244.619 403.302 252.265 417.278 256.185 419.753C277.602 413.989 277.752 403.419 277.759 382.84L277.687 359.784C277.532 338.593 278.051 298.227 290.791 280.163C314.477 246.579 392.463 269.937 397.982 233.576C399.452 223.889 396.673 211.664 390.832 203.785C390.659 205.01 390.727 206.118 390.832 207.34C392.997 209.319 393.852 213.525 391.472 215.691C389.003 217.939 372.174 216.1 367.881 216.272C344.393 217.214 309.027 231.634 291.615 230.443C274.521 229.273 277.241 212.154 278.164 200.034C279.663 180.353 282.612 160.67 286.26 141.274C289.221 125.535 295.931 107.695 284.002 93.8802ZM143.247 218.054C144.389 219.666 145.476 221.325 146.424 223.06C147.248 224.115 148.469 225.527 147.246 226.739C145.709 226.656 144.284 224.726 143.247 223.707L139.323 225.578C139.887 226.568 143.666 230.911 140.712 231.014C138.563 230.078 136.834 227.365 135.368 225.578C133.948 226.418 132.651 227.327 131.345 228.335C132.902 230.655 134.415 232.804 135.368 235.461C133.28 234.358 131.848 232.538 129.936 231.211C128.215 231.786 126.281 231.976 124.474 232.095C125.846 234.751 129.575 237.178 129.819 240.223L129.562 240.729C127.079 240.823 124.562 236.504 122.212 235.461C121.073 236.374 119.934 237.243 118.99 238.366C120.517 240.252 125.241 243.509 125.448 245.821L125.216 246.261C123.142 246.527 119.097 242.581 117.641 241.261C116.499 242.8 115.856 244.476 115.032 246.187C117.13 248.296 120.718 250.878 121.894 253.584L121.8 254.116C119.317 255.02 115.574 250.777 114.087 249.27C113.768 251.094 113.677 253.352 112.744 254.954C120.627 258.803 129.158 268.985 112.744 257.762C113.241 259.963 113.743 261.979 114.926 263.933C116.475 266.489 125.902 273.472 118.99 272.131C120.97 276.945 125.974 280.208 129.936 283.334C132.475 276.872 133.954 273.098 135.368 266.272C143.122 251.163 177.661 238.376 193.187 236.13C202.492 234.784 212.328 235.069 221.478 233.03C237.77 229.399 235.74 205.514 236.8 192.985C238.809 169.25 245.779 144.239 258.734 124.084C262.025 118.964 270.299 107.092 275.804 105.34C278.076 104.618 280.361 105.484 282.525 104.916C286.909 103.765 284.357 98.392 280.798 96.6494C282.042 95.8825 282.99 94.9217 284.002 93.8802C279.533 89.1745 274.123 86.5552 267.808 85.2538C255.339 82.2205 231.453 87.5898 223.881 98.7063C217.142 108.601 206.602 181.848 207.059 200.94C207.357 213.358 204.785 209.26 193.561 209.249C179.428 209.235 157.268 214.015 143.247 218.054ZM124.474 223.707C122.566 224.763 120.788 226.014 118.99 227.244C120.767 228.939 122.523 230.596 124.474 232.095C126.281 231.976 128.215 231.786 129.936 231.211C127.649 228.933 125.828 226.655 124.474 223.707ZM114.087 234.031C115.763 235.423 117.495 236.776 118.99 238.366C119.934 237.243 121.073 236.374 122.212 235.461C120.691 233.346 119.081 231.266 117.641 229.097C116.227 230.668 114.98 232.089 114.087 234.031ZM125.502 223.06C127.948 224.401 129.686 226.097 131.345 228.335C132.651 227.327 133.948 226.418 135.368 225.578C134.416 224.125 133.399 222.695 132.692 221.102C130.212 221.552 127.841 222.104 125.502 223.06ZM134.603 220.183C136.187 221.967 137.821 223.725 139.323 225.578L143.247 223.707C142.396 222.168 141.502 220.651 140.893 218.997C138.797 219.358 136.664 219.656 134.603 220.183ZM112.744 236.595C112.348 238.855 111.812 241.169 111.583 243.449C112.747 244.306 114.048 245.125 115.032 246.187C115.856 244.476 116.499 242.8 117.641 241.261C116.088 239.603 114.439 238.102 112.744 236.595ZM111.583 247.016C111.597 249.262 111.159 253.24 112.744 254.954C113.677 253.352 113.768 251.094 114.087 249.27C113.357 248.342 112.521 247.712 111.583 247.016Z"/>
	<path fill="#FECA04" transform="scale(2 2)" d="M370.995 192.279C378.411 193.699 386.285 197.129 390.683 203.562L390.832 203.785C390.659 205.01 390.727 206.118 390.832 207.34C372.191 203.464 338.348 210.864 320.374 215.501C311.809 217.711 302.455 220.86 293.684 221.648C293.305 216.504 293.662 211.205 293.684 206.044C315.015 202.633 335.805 196.612 357.309 193.868C360.415 193.471 368.729 193.502 370.995 192.279Z"/>
	<path fill="#FECA04" transform="scale(2 2)" d="M207.005 292.306C215.792 289.613 224.529 286.638 233.106 283.334C229.584 319.726 222.322 343.22 233.36 381.81C234.944 387.348 236.002 396.784 242.185 399.031C244.619 403.302 252.265 417.278 256.185 419.753C245.765 419.22 238.127 420.705 227.978 415.167C214.629 407.883 209.121 378.091 205.31 364.824C206.43 361.184 205.317 321.217 205.932 312.68C206.23 308.552 208.3 295.393 207.005 292.306Z"/>
	<path fill="#FECA04" transform="scale(2 2)" d="M143.247 218.054C157.268 214.015 179.428 209.235 193.561 209.249C204.785 209.26 207.357 213.358 207.059 200.94C206.602 181.848 217.142 108.601 223.881 98.7063C231.453 87.5898 255.339 82.2205 267.808 85.2538C274.123 86.5552 279.533 89.1745 284.002 93.8802C282.99 94.9217 282.042 95.8825 280.798 96.6494C284.357 98.392 286.909 103.765 282.525 104.916C280.361 105.484 278.076 104.618 275.804 105.34C270.299 107.092 262.025 118.964 258.734 124.084C245.779 144.239 238.809 169.25 236.8 192.985C235.74 205.514 237.77 229.399 221.478 233.03C212.328 235.069 202.492 234.784 193.187 236.13C177.661 238.376 143.122 251.163 135.368 266.272C133.954 273.098 132.475 276.872 129.936 283.334C125.974 280.208 120.97 276.945 118.99 272.131C125.902 273.472 116.475 266.489 114.926 263.933C113.743 261.979 113.241 259.963 112.744 257.762C129.158 268.985 120.627 258.803 112.744 254.954C113.677 253.352 113.768 251.094 114.087 249.27C115.574 250.777 119.317 255.02 121.8 254.116L121.894 253.584C120.718 250.878 117.13 248.296 115.032 246.187C115.856 244.476 116.499 242.8 117.641 241.261C119.097 242.581 123.142 246.527 125.216 246.261L125.448 245.821C125.241 243.509 120.517 240.252 118.99 238.366C119.934 237.243 121.073 236.374 122.212 235.461C124.562 236.504 127.079 240.823 129.562 240.729L129.819 240.223C129.575 237.178 125.846 234.751 124.474 232.095C126.281 231.976 128.215 231.786 129.936 231.211C131.848 232.538 133.28 234.358 135.368 235.461C134.415 232.804 132.902 230.655 131.345 228.335C132.651 227.327 133.948 226.418 135.368 225.578C136.834 227.365 138.563 230.078 140.712 231.014C143.666 230.911 139.887 226.568 139.323 225.578L143.247 223.707C144.284 224.726 145.709 226.656 147.246 226.739C148.469 225.527 147.248 224.115 146.424 223.06C145.476 221.325 144.389 219.666 143.247 218.054ZM143.247 218.054C144.389 219.666 145.476 221.325 146.424 223.06C148.115 222.598 149.779 222.075 151.482 221.648C153.449 224.075 157.269 228.173 154.879 221.102C156.87 220.86 158.86 220.493 160.842 220.183C162.184 221.427 163.486 222.721 165.035 223.707C164.736 222.535 164.476 221.334 164.103 220.183C165.44 219.851 167.325 219.809 168.435 218.997C169.333 219.954 170.35 220.789 171.34 221.648L171.34 218.054C173.095 217.961 174.847 218.156 176.611 218.054C175.395 213.786 178.204 213.528 180.193 217.223C181.71 217.196 183.227 217.256 184.747 217.223C184.106 214.186 186.206 213.321 187.716 216.247C197.344 215.907 191.014 214.044 194.233 213.483L194.667 213.803C195.973 217.683 202.748 215.798 203.732 214.585C203.785 214.042 203.822 213.555 203.995 213.034L204.372 212.934C205.007 213.718 205.107 214.777 205.31 215.741C208.417 215.945 211.641 215.761 214.759 215.741C214.961 209.54 214.986 203.433 214.759 197.232C213.431 196.821 212.292 196.557 211.47 195.349L211.702 195.017C212.811 194.971 213.753 195.47 214.759 195.886C214.503 193.375 214.575 191.059 214.759 188.544C213.162 188.081 210.056 187.247 209.493 185.43L209.797 185.148C211.759 185.218 213.125 186.185 214.759 187.163C214.994 184.615 214.867 182.051 214.759 179.499C213.678 178.703 209.39 176.052 209.615 174.499C211.673 174.268 213.594 176.045 214.999 177.33C215.688 174.643 215.894 171.775 216.473 169.044C217.562 168.856 218.632 168.973 219.728 169.044L216.473 166.106C217.261 163.497 217.518 160.682 217.898 157.989C218.747 158.04 219.12 158.15 219.888 157.754L220.056 157.199C219.775 156.469 219.33 156.172 218.732 155.717C218.961 153.251 219.381 150.785 219.728 148.332C220.884 148.983 222.06 149.607 223.225 150.244C222.629 148.833 222.008 147.696 220.943 146.579C221.691 144.463 221.416 142.187 222.319 139.975C225.188 142.238 225.098 139.341 223.225 137.67C227.419 119.136 238.675 97.7004 256.325 89.297C260.032 87.532 263.948 86.5821 267.808 85.2538C255.339 82.2205 231.453 87.5898 223.881 98.7063C217.142 108.601 206.602 181.848 207.059 200.94C207.357 213.358 204.785 209.26 193.561 209.249C179.428 209.235 157.268 214.015 143.247 218.054Z"/>
	<path transform="scale(2 2)" d="M184.747 217.223C184.106 214.186 186.206 213.321 187.716 216.247L187.716 220.183C186.763 219.248 185.779 218.037 184.747 217.223Z"/>
	<path transform="scale(2 2)" d="M176.611 218.054C175.395 213.786 178.204 213.528 180.193 217.223C180.043 218.545 180.102 219.782 180.193 221.102C179.347 220.282 177.733 218.336 176.611 218.054Z"/>
	<path transform="scale(2 2)" d="M219.728 148.332C218.178 148.234 216.856 147.722 216.88 146.008L217.381 145.522C218.744 145.172 219.799 145.942 220.943 146.579C222.008 147.696 222.629 148.833 223.225 150.244C222.06 149.607 220.884 148.983 219.728 148.332Z"/>
	<path transform="scale(2 2)" d="M222.319 139.975C217.635 135.456 218.426 133.345 223.225 137.67C225.098 139.341 225.188 142.238 222.319 139.975Z"/>
	<path transform="scale(2 2)" d="M217.898 157.989C213.885 156.75 209.88 151.328 218.732 155.717C219.33 156.172 219.775 156.469 220.056 157.199L219.888 157.754C219.12 158.15 218.747 158.04 217.898 157.989Z"/>
	<path transform="scale(2 2)" d="M216.473 169.044C214.806 168.088 211.768 166.605 211.844 164.301L212.347 163.996C213.935 164.135 215.201 165.228 216.473 166.106L219.728 169.044C218.632 168.973 217.562 168.856 216.473 169.044Z"/>
	<path transform="scale(2 2)" d="M168.435 218.997C166.123 214.587 169.455 213.476 171.34 218.054L171.34 221.648C170.35 220.789 169.333 219.954 168.435 218.997Z"/>
	<path transform="scale(2 2)" d="M160.842 220.183C158.283 215.183 161.552 215.558 163.75 219.536L164.103 220.183C164.476 221.334 164.736 222.535 165.035 223.707C163.486 222.721 162.184 221.427 160.842 220.183Z"/>
	<path transform="scale(2 2)" d="M151.482 221.648C148.142 215.337 152.515 217.294 154.879 221.102C157.269 228.173 153.449 224.075 151.482 221.648Z"/>
	<path transform="scale(2 2)" d="M131.345 270.94C115.701 272.505 131.818 255.868 135.877 252.253C153.579 236.485 175.466 229.474 198.652 226.647C230.358 222.78 224.504 226.872 227.841 192.864C230.661 164.12 239.124 134 256.913 110.922C262.389 103.819 270.745 94.7187 280.798 96.6494C284.357 98.392 286.909 103.765 282.525 104.916C280.361 105.484 278.076 104.618 275.804 105.34C270.299 107.092 262.025 118.964 258.734 124.084C245.779 144.239 238.809 169.25 236.8 192.985C235.74 205.514 237.77 229.399 221.478 233.03C212.328 235.069 202.492 234.784 193.187 236.13C177.661 238.376 143.122 251.163 135.368 266.272C133.971 267.765 132.988 269.688 131.345 270.94Z"/>
</svg>
