<svg width="574" height="826" viewBox="0 0 574 826" fill="none" xmlns="http://www.w3.org/2000/svg">
<path d="M149.95 0.968772C193.432 -1.10643 261.214 4.02117 297.842 23.6314C341.634 47.0772 354.624 98.4248 365.292 142.984C395.504 269.178 399.014 380.096 392.704 507.514C416.616 499.164 575.694 451.498 573.178 482.84C571.794 500.09 512.352 571.11 500.306 586.57L442.97 659.226C411.82 699.042 380.856 739.2 352.166 780.842C319.538 828.2 310.208 847.802 261.774 789.15C198.83 709.888 128.48 635.29 53.116 567.646C44.924 560.294 3.96399 525.866 1.12999 520.198C-3.31001 511.32 29.386 505.804 33.936 504.876C92.568 492.936 163.68 502.312 221.278 519.954C219.642 508.6 219.45 496.906 218.74 485.456C216.256 445.338 209.19 405.162 201.242 365.84C181.464 268.01 145.82 131.32 45.492 85.478C28.188 77.5714 4.91399 71.4762 2.68599 48.7032C2.16399 43.3508 2.90998 37.3378 6.59598 33.1636C26.068 11.116 114.76 3.54397 149.95 0.968772ZM139.332 28.629C103.842 34.219 67.282 35.9178 33.542 49.5548C75.488 60.8236 121.616 98.5742 144.814 133.85C147.84 126.014 151.598 117.668 157.422 111.48C154.78 121.748 153.898 132.1 149.95 142.06C155.496 148.162 158.636 155.218 162.934 162.148C167.588 151.078 172.646 139.752 180.312 130.384C176.128 144 171.942 158.128 169.824 172.232C172.65 180.028 175.752 188.334 180.312 195.284C184.656 180.524 195.244 160.82 205.402 148.9C199.19 165.02 193.672 194.298 185.252 205.876C188.422 213.504 190.888 221.572 194.442 229.004C200.194 215.702 206.222 201.128 214.64 189.246C212.064 208.024 207.994 226.824 198.796 243.568C202.472 252.064 205.21 260.986 208.07 269.784C219.458 250.314 230.89 230.29 245.162 212.752C237.326 232.888 222.708 265.856 211.934 283.812C215.43 295.904 218.622 308.092 221.278 320.398C234.822 299.938 248.69 274.242 263.366 255.29C253.862 283.23 241.19 311.288 224.3 335.592C227.096 348.852 229.912 362.19 232.098 375.566C247.564 349.592 261.692 323.326 278.45 298.114C269.112 323.078 250.63 370.826 234.268 392.218C236.396 405.37 237.522 419.82 240.228 432.63C253.758 408.696 265.938 377.506 282.308 356.232C275.372 384.396 257.97 427.608 242.506 452.412C244.39 461.936 245.59 479.518 245.162 489.244L245.652 488.55C259.404 468.856 265.9 449.998 285.874 432.63C273.81 460.692 260.394 481.656 247.032 507.514C246.664 542.488 252.516 554.286 211.06 544.458C178.584 536.76 145.974 532.7 112.848 528.808C119.656 547.67 124.892 567.216 129.58 586.714C134.914 608.904 135.556 604.692 149.95 622.104C146.792 595.758 137.942 571.56 136.19 543.272C142.64 562.148 148.94 581.014 154.714 600.114C162.828 626.954 158.884 632.5 178.806 651.526C175.08 633.622 171.59 616.052 169.824 597.828C176.326 615.724 182.592 633.692 188.702 651.726C195.378 671.434 192.688 670.894 210.832 685.716L211.934 686.63C205.29 671.202 199.488 647.198 198.796 630.398C204.424 646.932 211.57 662.82 217.698 679.176C229.726 711.284 227.502 706.8 252.478 734.206C243.988 708.178 233.832 682.808 226.844 656.26C239.802 675.368 253.864 714.402 263.708 736.17C274.086 759.116 278.954 767.284 297.462 785.924C288.778 760.34 268.67 722.834 265.546 698.808C277.852 722.536 292.184 756.444 305.22 778.206C308.804 785.216 310.866 793.314 313.462 800.722C321.194 791.694 326.56 779.91 332.65 769.718C350.416 739.986 370.56 712.83 390.994 684.972C437.514 621.55 485.204 559.422 536.224 499.5C487.42 504.026 423.424 535.304 379.4 531.836C369.786 531.078 374.61 507.72 374.866 500.184C378.46 393.916 373.498 288.106 352.062 183.768C343.53 142.236 332.794 87.6624 305.22 54.3136C265.832 39.7836 231.558 32.6886 189.072 30.1538C177.6 27.757 151.796 28.1842 139.332 28.629Z" fill="black"/>
<path d="M31.246 519.954C35.47 520.046 39.652 521.63 43.698 522.77V528.808C39.118 526.336 35.178 523.35 31.246 519.954Z" fill="#FECA04"/>
<path d="M52.192 522.77C56.568 523.092 60.958 523.835 65.308 524.419C66.612 531.959 68.002 539.616 68.734 547.232C62.95 543.546 57.552 538.842 52.192 534.568C51.55 530.56 51.886 526.794 52.192 522.77Z" fill="#FECA04"/>
<path d="M68.734 524.42C74.31 524.974 79.876 525.496 85.412 526.4C86.524 539.484 89.584 552.162 90.97 565.116C87.52 562.088 83.964 559.18 80.438 556.242C77.594 548.87 70.214 530.704 68.734 524.42Z" fill="#FECA04"/>
<path d="M90.97 526.4C97.124 526.752 103.342 527.698 109.4 528.808C113.826 547.48 119.014 573.548 121.64 592.206C103 581.716 103.942 571.266 99.36 553.822C96.926 544.554 94.014 535.484 90.97 526.4Z" fill="#FECA04"/>
<path d="M139.332 28.6291C151.796 28.1843 177.6 27.7571 189.072 30.1539C231.558 32.6887 265.832 39.7837 305.22 54.3137C332.794 87.6625 343.53 142.236 352.062 183.768C373.498 288.106 378.46 393.916 374.866 500.184C374.61 507.72 369.786 531.078 379.4 531.836C423.424 535.304 487.42 504.026 536.224 499.5C485.204 559.422 437.514 621.55 390.994 684.972C370.56 712.83 350.416 739.986 332.65 769.718C326.56 779.91 321.194 791.694 313.462 800.722C310.866 793.314 308.804 785.216 305.22 778.206C292.184 756.444 277.852 722.536 265.546 698.808C268.67 722.834 288.778 760.34 297.462 785.924C278.954 767.284 274.086 759.116 263.708 736.17C253.864 714.402 239.802 675.368 226.844 656.26C233.832 682.808 243.988 708.178 252.478 734.206C227.502 706.8 229.726 711.284 217.698 679.176C211.57 662.82 204.424 646.932 198.796 630.398C199.488 647.198 205.29 671.202 211.934 686.63L210.832 685.716C192.688 670.894 195.378 671.434 188.702 651.726C182.592 633.692 176.326 615.724 169.824 597.828C171.59 616.052 175.08 633.622 178.806 651.526C158.884 632.5 162.828 626.954 154.714 600.114C148.94 581.014 142.64 562.148 136.19 543.272C137.942 571.56 146.792 595.758 149.95 622.104C135.556 604.692 134.914 608.904 129.58 586.714C124.892 567.216 119.656 547.67 112.848 528.808C145.974 532.7 178.584 536.76 211.06 544.458C252.516 554.286 246.664 542.488 247.032 507.514C260.394 481.656 273.81 460.692 285.874 432.63C265.9 449.998 259.404 468.856 245.652 488.55L245.162 489.244C245.59 479.518 244.39 461.936 242.506 452.412C257.97 427.608 275.372 384.396 282.308 356.232C265.938 377.506 253.758 408.696 240.228 432.63C237.522 419.82 236.396 405.37 234.268 392.218C250.63 370.826 269.112 323.078 278.45 298.114C261.692 323.326 247.564 349.592 232.098 375.566C229.912 362.19 227.096 348.852 224.3 335.592C241.19 311.288 253.862 283.23 263.366 255.29C248.69 274.242 234.822 299.938 221.278 320.398C218.622 308.092 215.43 295.904 211.934 283.812C222.708 265.856 237.326 232.888 245.162 212.752C230.89 230.29 219.458 250.314 208.07 269.784C205.21 260.986 202.472 252.064 198.796 243.568C207.994 226.824 212.064 208.024 214.64 189.246C206.222 201.128 200.194 215.702 194.442 229.004C190.888 221.572 188.422 213.504 185.252 205.876C193.672 194.298 199.19 165.02 205.402 148.9C195.244 160.82 184.656 180.524 180.312 195.284C175.752 188.334 172.65 180.028 169.824 172.232C171.942 158.128 176.128 144 180.312 130.384C172.646 139.752 167.588 151.078 162.934 162.148C158.636 155.218 155.496 148.162 149.95 142.06C153.898 132.1 154.78 121.748 157.422 111.48C151.598 117.668 147.84 126.014 144.814 133.85C121.616 98.5743 75.488 60.8237 33.542 49.5549C67.282 35.9179 103.842 34.2191 139.332 28.6291ZM189.072 30.1539C176.174 32.6373 156.92 31.4377 143.056 32.6141C116.874 39.9187 85.998 40.9549 60.922 54.3137L61.39 54.5525C69.344 58.5073 78.164 60.9307 86.46 64.0621C116.556 75.4215 144.886 90.4527 169.118 111.84C264.672 196.174 296.524 334.406 324.112 453.402C341.148 526.89 343.678 579.724 444.014 544.134C447.51 542.892 498.49 519.896 481.126 540.024C474.268 547.972 466.078 554.78 458.94 562.476C423.414 600.782 392.28 643.866 361.862 686.216C337.384 720.294 322.956 739.436 305.22 778.206C308.804 785.216 310.866 793.314 313.462 800.722C321.194 791.694 326.56 779.91 332.65 769.718C350.416 739.986 370.56 712.83 390.994 684.972C437.514 621.55 485.204 559.422 536.224 499.5C487.42 504.026 423.424 535.304 379.4 531.836C369.786 531.078 374.61 507.72 374.866 500.184C378.46 393.916 373.498 288.106 352.062 183.768C343.53 142.236 332.794 87.6625 305.22 54.3137C265.832 39.7837 231.558 32.6887 189.072 30.1539Z" fill="#FECA04"/>
<path d="M280.126 503.416L280.316 504.19C275.248 526.286 248.84 558.658 234.268 575.322C231.468 562.992 270.292 512.074 280.126 503.416Z" fill="black"/>
<path d="M325.9 212.752C341.232 208.832 343.584 231.596 328.824 234.416C314.648 234.764 310.892 215.03 325.9 212.752Z" fill="black"/>
<path d="M200.694 49.555C244.588 46.8366 299.778 98.0762 318.66 134.49C325.86 148.374 343.922 185.48 322.878 195.284C307.586 197.182 304.944 183.326 300.174 172.426C283.864 135.168 253.312 103.098 218.9 81.7634C211.692 77.2946 203.142 73.5166 196.52 68.2904C187.42 61.108 190.256 52.169 200.694 49.555Z" fill="black"/>
</svg>
