<svg width="653" height="842" viewBox="0 0 653 842" fill="none" xmlns="http://www.w3.org/2000/svg">
<path d="M376.258 0.508945C392.714 0.101545 396.4 20.4823 403.342 33.4209C454.22 128.25 518.898 215.084 591.834 294.102L629.034 333.856C637.02 342.316 669.856 368.952 641.248 376.514C603.702 364.832 537.07 339.26 499.616 334.124C472.57 349.986 473.734 414.71 470.824 441.762C465.934 487.21 458.792 532.984 444.89 576.624C397.254 726.168 278.92 841.806 114.75 841.496C84.57 841.648 55.672 837.418 26.268 830.91C14.5466 828.314 4.26736 828.592 0.368164 815.514C4.23356 797.342 16.662 801.276 31.844 798.706C207.146 769.012 276.874 565.852 269.122 408.598C267.984 385.49 265.996 362.552 258.82 340.41C232.904 343.244 208.028 347.942 183.032 355.272C171.23 358.732 117.592 376.87 108.728 373.972C85.086 366.248 112.012 342.902 119.424 335.028C166.616 284.892 211.992 241 254.814 185.782C291.908 137.948 323.58 86.3758 353.188 33.68C359.558 22.3434 363.856 6.44774 376.258 0.508945ZM372.238 53.4541C324.946 137.55 272.366 210.384 207.564 281.192C196.056 293.768 184.636 305.858 174.356 319.444C198.24 303.64 241.856 291.274 267.796 303.516C301.522 346.006 297.838 447.058 291.862 498.676C278.776 611.668 222.132 743.092 115.536 797.188C105.032 802.518 94.19 806.798 83.38 811.42C92.878 813.256 104.686 808.962 113.99 806.988C299.106 767.698 380.174 646.606 408.976 467.332C414.588 432.398 417.306 397.216 421.904 362.178C430.86 293.938 468.442 283.842 532.832 292.356C507.462 278.692 485.698 260.57 463.788 242.034C468.022 231.18 468.68 221.798 468.558 210.286C465.878 219.74 462.644 229.16 460.652 238.784C456.038 233.668 451.42 228.652 446.258 224.078C445.616 225.004 444.936 225.858 444.208 226.72L443.816 226.444C444.206 224.614 444.456 222.902 444.516 221.03L444.53 220.486C439.408 214.878 433.422 209.928 428.632 204.06C427.85 204.878 427.158 205.654 426.522 206.594L425.958 207.436C425.162 205.46 426.79 203.194 426.712 200.962C421.492 196.744 417.874 190.902 411.522 188.126L411.43 188.124L411.522 184.684C405.33 180.238 400.52 174.166 394.644 169.286C389.93 163.688 385.326 158.026 380.4 152.606V150.984C375.044 145.79 370.62 139.286 365.034 134.572C361.358 129.024 356.514 124.084 352.602 118.642C351.942 119.392 351.264 120.126 350.594 120.868L352.602 116.13C352.436 103.617 374.01 59.1723 372.238 53.4541ZM219.184 313.504C208.724 315.518 181.376 319.558 172.364 319.444L172.81 319.196C166.132 324.982 160.228 331.398 153.864 337.49C160.7 335.424 167.552 333.398 174.356 331.228C187.408 327.254 200.462 323.284 213.828 320.478L248.452 313.504C238.822 313.582 228.664 312.602 219.184 313.504Z" fill="black"/>
<path d="M377.758 42.4746C380.616 48.7788 384.144 54.7276 387.124 60.9618C381.574 69.6814 357.914 110.617 352.602 116.13C352.436 103.616 374.01 59.1716 372.238 53.4534C373.762 49.6574 375.798 46.0592 377.758 42.4746Z" fill="#FECA04"/>
<path d="M390.288 67.1777C404.396 89.7641 418.146 112.632 432.95 134.774C471.544 192.504 515.386 247.11 561.884 298.606C573.532 311.504 585.97 323.948 596.834 337.49C581.688 331.096 507.59 303.424 492.37 309.674C451.224 326.568 451.106 381.408 447.512 418.644C442.236 473.308 434.118 528.832 416.08 580.828C364.48 729.554 237.064 831.6 76.142 813.718C78.524 812.896 80.914 811.948 83.38 811.42C92.878 813.256 104.686 808.962 113.99 806.988C299.106 767.698 380.174 646.606 408.976 467.332C414.588 432.398 417.306 397.216 421.904 362.178C430.86 293.938 468.442 283.842 532.832 292.356C507.462 278.692 485.698 260.57 463.788 242.034C468.022 231.18 468.68 221.798 468.558 210.286C465.878 219.74 462.644 229.16 460.652 238.784C456.038 233.668 451.42 228.652 446.258 224.078C445.616 225.004 444.936 225.858 444.208 226.72L443.816 226.444C444.206 224.614 444.456 222.902 444.516 221.03L444.53 220.486C439.408 214.878 433.422 209.928 428.632 204.06C427.85 204.878 427.158 205.654 426.522 206.594L425.958 207.436C425.162 205.46 426.79 203.194 426.712 200.962C421.492 196.744 417.874 190.902 411.522 188.126L411.43 188.124L411.522 184.684C405.33 180.238 400.52 174.166 394.644 169.286C389.93 163.688 385.326 158.026 380.4 152.606V150.984C375.044 145.79 370.62 139.286 365.034 134.572C361.358 129.024 356.514 124.084 352.602 118.642C368.408 99.9247 377.222 86.7969 390.288 67.1777Z" fill="#FECA04"/>
<path d="M455.43 188.126C455.028 201.892 453.712 212.216 446.258 224.078C445.616 225.004 444.936 225.858 444.208 226.72L443.816 226.444C444.206 224.614 444.456 222.902 444.516 221.03L444.53 220.486C446.898 209.878 450.59 197.87 455.43 188.126Z" fill="black"/>
<path d="M440.484 164.974C439.006 178.454 436.806 192.814 428.632 204.06C427.85 204.878 427.158 205.654 426.522 206.594L425.958 207.436C425.162 205.46 426.79 203.194 426.712 200.962C428.192 191.09 435.628 174.042 440.484 164.974Z" fill="black"/>
<path d="M411.522 184.684C409.766 172.316 420.244 157.85 426.712 148.03C423.374 160.654 420.13 178.132 411.522 188.126L411.43 188.124L411.522 184.684Z" fill="black"/>
<path d="M414.308 128.87C411.016 143.346 405.468 158.586 394.644 169.286C394.842 154.948 406.528 140.42 414.308 128.87Z" fill="black"/>
<path d="M380.4 150.984C381.786 135.536 394.732 120.13 403.428 107.698C395.74 130.252 389.918 134.882 380.4 152.606V150.984Z" fill="black"/>
<path d="M396.392 83.9697C389.978 101.699 378.89 121.704 365.034 134.572C367.316 120.932 387.558 98.4095 396.392 83.9697Z" fill="black"/>
<path d="M338.518 138.38C386.652 166.166 419.438 211.376 460.652 245.524C460.812 243.294 460.688 241.02 460.652 238.784C462.644 229.16 465.878 219.74 468.558 210.286C468.68 221.798 468.022 231.18 463.788 242.034C463.006 243.782 462.444 245.65 461.816 247.458C472.264 258.66 483.198 269.238 491.436 282.29C487.228 279.26 483.342 275.69 479.302 272.434L459.188 256.436C419.362 224.396 367.974 181.066 338.518 138.38Z" fill="black"/>
</svg>
