<svg width="841" height="592" viewBox="0 0 841 592" fill="none" xmlns="http://www.w3.org/2000/svg">
<path d="M137.048 166.736C148.682 164.718 166.722 194.194 175.162 204.028C205.902 239.848 239.328 272.694 275.836 302.568C280.74 306.58 290.088 311.02 290.922 317.826C291.936 326.09 290.312 343.002 280.886 346.402C267.34 351.288 231.976 354.662 217.38 356.244C292.854 407.86 488.256 486.714 550.022 397.978C552.976 393.734 556.21 384 561.508 382.652C576.702 378.786 567.442 403.788 565.436 409.286C552.106 445.79 527.046 478.692 495.06 500.938C489.742 504.636 483.67 507.742 479.574 512.902C468.912 528.978 461.342 546.592 447.362 560.38C372.828 633.892 181.876 563.992 121.878 502.922C83.8 464.162 69.0522 420.916 69.5646 367.116C54.0374 366.664 22.7393 375.512 10.4327 368.652C-2.75065 361.306 -0.777249 345.954 5.59655 334.684C31.5752 288.748 71.9037 240.022 105.481 199.716L122.664 179.504C126.882 174.608 130.516 168.554 137.048 166.736ZM147.362 204.284C144.314 209.246 140.018 213.662 136.222 218.062C116.192 241.288 34.3903 340.906 34.8603 348.696C49.9635 347.846 66.0913 345.788 80.9503 343.078C97.5161 331.316 98.42 351.39 103.749 363.688C147.33 464.252 222.224 515.204 328.06 543.5C363.058 552.858 385.772 556.27 418.702 537.436C419.916 536.74 420.792 536.06 421.68 534.96L420.004 535.262C328.582 551.402 200.458 498.14 183.33 397.514C181.442 386.412 178.678 351.376 185.61 342.272C189.14 337.634 261.312 329.082 273.444 327.134C230.282 299.444 180.982 242.53 147.362 204.284ZM201.676 371.392C202.808 408.254 215.326 438.034 242.298 463.44C276.39 495.554 344.992 518.722 391.774 517.228C431.154 515.97 461.986 500.298 492.262 476.454C502.998 466.57 513.032 456.648 522.772 445.776C428.828 488.456 283.948 423.772 201.676 371.392ZM98.7756 426.874C124.114 513.524 248.412 563.782 331.984 569.16L331.456 567.828C326.336 564.21 311.84 563.658 304.794 561.164C302.396 560.92 299.732 561.046 297.326 561.164C294.926 560.794 281.61 556.056 277.5 554.922C212.06 536.866 144.002 503.624 108.315 443.308C105.101 437.876 103.049 431.628 98.7756 426.874Z" fill="black"/>
<path d="M138.506 192.984C141.59 196.672 144.548 200.38 147.362 204.284C144.314 209.246 140.018 213.662 136.222 218.062C116.192 241.288 34.3904 340.906 34.8604 348.696C30.519 349.416 26.2148 350.078 21.8286 350.48C36.2748 312.246 111.288 225.72 138.506 192.984Z" fill="#FECA04"/>
<path d="M80.9504 343.078C97.5162 331.316 98.4201 351.39 103.749 363.688C147.33 464.252 222.224 515.204 328.06 543.5C363.058 552.858 385.772 556.27 418.702 537.436C419.916 536.74 420.792 536.06 421.68 534.96C430.45 532.64 439.044 529.852 447.648 526.986C422.628 555.752 410.626 567.506 367.938 570.344C359.45 570.908 339.442 571.85 331.984 569.16L331.456 567.828C326.336 564.21 311.84 563.658 304.794 561.164C302.396 560.92 299.732 561.046 297.326 561.164C294.926 560.794 281.61 556.056 277.5 554.922C212.06 536.866 144.002 503.624 108.315 443.308C105.101 437.876 103.049 431.628 98.7757 426.874C91.7832 413.408 90.9282 387.084 90.7384 371.74C90.614 361.672 94.5256 345.28 80.9504 343.078Z" fill="#FECA04"/>
<path d="M324.274 555.48C330.698 555.892 335.65 559.638 329.782 564.938C323.964 565.252 317.574 560.412 324.274 555.48Z" fill="black"/>
<path d="M173.41 493.762C180.188 494.602 183.924 499.85 178.426 504.68C171.862 505.256 169.118 498.162 173.41 493.762Z" fill="black"/>
<path d="M273.444 545.378C279.826 544.424 285.864 547.626 280.026 553.326C274.534 554.344 268.11 550.248 273.444 545.378Z" fill="black"/>
<path d="M130.842 454.372C136.782 454.654 142.666 460.272 137.048 465.06C130.452 466.774 125.78 459.05 130.842 454.372Z" fill="black"/>
<path d="M106.359 407.39C112.846 407.214 116.484 415.22 111.052 419.12C103.876 419.634 101.617 412.462 106.359 407.39Z" fill="black"/>
<path d="M120.328 430.876C126.134 432.662 124.666 440.454 120.328 443.28C111.874 441.798 112.93 433.36 120.328 430.876Z" fill="black"/>
<path d="M248.59 534.96C254.068 535.408 260.578 541.186 254.406 545.378C246.522 544.678 241.364 541.63 248.59 534.96Z" fill="black"/>
<path d="M223.058 523.82C230.87 524.152 234.032 528.792 229.39 534.96C222.186 534.576 218.006 529.668 223.058 523.82Z" fill="black"/>
<path d="M297.326 561.164C286.714 546.168 316.12 549.956 304.794 561.164C302.396 560.92 299.732 561.046 297.326 561.164Z" fill="black"/>
<path d="M197.58 509.922C205.342 509.8 209.194 515.834 203.534 521.346C196.614 522.27 192.012 514.776 197.58 509.922Z" fill="black"/>
<path d="M150.688 474.24C158.37 474.476 160.524 481.374 155.592 486.514C147.346 487.192 145.852 479.234 150.688 474.24Z" fill="black"/>
<path d="M474.006 0.985697C549.57 -2.1543 641.032 33.6777 699.484 78.4877C754.922 120.988 770.448 164.12 779.404 231.532C797.008 231.738 837.424 215.424 840.28 245.034C842.252 265.5 766.496 362.212 752.076 377.996C741.9 389.136 732.276 399.39 724.194 412.23C706.646 440.104 698.45 433.03 682.052 410.55C661.694 382.644 635.302 358.472 610.03 335.17C596.876 322.16 550.26 289.416 547.906 275.23C542.91 245.124 605.33 243.484 624.474 240.59C555.042 194.124 360.268 108.75 293.054 199.458C290.468 202.948 288.066 207.756 284.774 210.548C279.372 215.13 271.386 208.744 272.536 202.32C281.86 150.214 320.908 113.298 362.992 85.1197C386.91 33.6637 413.95 7.3117 474.006 0.985697ZM416.012 43.4237C407.286 49.5397 396.834 63.3177 391.662 72.6997C448.414 51.4637 505.4 59.5937 560.108 84.5557C622.732 113.128 662.07 154.486 661.334 224.55C656.558 269.32 615.936 263.9 577.452 270.624C575.654 270.938 570.78 271.342 570.414 273.394L571.33 274.194C585.068 287.666 601.542 298.936 616.208 311.444C642.24 333.648 677.556 368.806 697.94 394.98C701.832 390.774 704.73 385.388 708.39 380.896C731.68 352.308 772.676 299.006 784.176 263.09C772.45 263.572 758.53 264.464 747.164 264.398C749.818 123.686 559.53 29.1537 438.746 40.6377C431.162 41.3597 423.698 44.0737 416.012 43.4237ZM447.648 81.1917C398.312 84.0997 350.282 113.332 318.732 150.238C388.8 121.968 480.996 148.546 547.63 176.31C581.262 191.342 608.754 209.392 640.25 224.55C644.658 127.004 529.726 78.3557 447.648 81.1917ZM416.012 43.4237C423.698 44.0737 431.162 41.3597 438.746 40.6377C559.53 29.1537 749.818 123.686 747.164 264.398C758.53 264.464 772.45 263.572 784.176 263.09C772.676 299.006 731.68 352.308 708.39 380.896C704.73 385.388 701.832 390.774 697.94 394.98C706.882 409.722 709.814 393.912 718.24 384.06C726.392 374.526 735.376 365.71 743.624 356.252C763.254 333.748 809.24 275.952 819.354 247.004C809.25 249.312 778.106 254.384 768.938 253.23C756.226 251.632 759.136 229.41 757.776 220.206C753.072 188.374 743.52 155.052 723.004 129.728C671.22 65.8037 494.892 -20.6623 416.012 43.4237Z" fill="black"/>
<path d="M416.012 43.424C423.698 44.074 431.162 41.36 438.746 40.638C559.53 29.154 749.818 123.686 747.164 264.398C758.53 264.464 772.45 263.572 784.176 263.09C772.676 299.006 731.68 352.308 708.39 380.896C704.73 385.388 701.832 390.774 697.94 394.98C677.556 368.806 642.24 333.648 616.208 311.444C601.542 298.936 585.068 287.666 571.33 274.194L570.414 273.394C570.78 271.342 575.654 270.938 577.452 270.624C615.936 263.9 656.558 269.32 661.334 224.55C662.07 154.486 622.732 113.128 560.108 84.556C505.4 59.594 448.414 51.464 391.662 72.7C396.834 63.318 407.286 49.54 416.012 43.424ZM661.334 224.55C656.558 269.32 615.936 263.9 577.452 270.624C575.654 270.938 570.78 271.342 570.414 273.394L571.33 274.194C579.07 274.166 586.754 272.332 594.478 271.784C614.42 270.37 681.03 273.328 670.59 235.04C669.096 233.148 668.646 231.494 668.134 229.178C666.668 227.162 663.466 225.794 661.334 224.55Z" fill="#FECA04"/>
<path d="M581.254 81.1924C586.456 81.3564 598.338 84.5404 593.782 91.5864C587.262 91.6464 577.952 89.3044 581.254 81.1924Z" fill="black"/>
<path d="M697.94 369.722C702.978 370.232 709.076 377.986 703.596 383.222C695.188 385.384 692.364 375.238 697.94 369.722Z" fill="black"/>
<path d="M637.612 315.734C643.266 316.96 655.35 324.938 648.292 330.872C642.162 329.322 630.254 322.262 637.612 315.734Z" fill="black"/>
<path d="M657.978 335.17C663.11 335.348 677.072 342.822 670.59 350.48C666.306 349.562 651.508 341.646 657.978 335.17Z" fill="black"/>
<path d="M679.198 352.37C685.074 352.846 696.59 360.668 690.402 367.116C682.556 367.608 672.366 359.834 679.198 352.37Z" fill="black"/>
<path d="M637.612 117.85C644.718 117.57 656.374 131.11 650.694 138.208C644.432 137.046 629.936 124.196 637.612 117.85Z" fill="black"/>
<path d="M670.59 173.948C677.316 175.902 681.186 194.144 674.436 198.794L672.502 198.426C669.458 196.254 661.302 177.178 670.59 173.948Z" fill="black"/>
<path d="M657.978 142.684C664.286 144.928 674.462 160.616 668.134 166.736C659.552 168.814 652.514 148.278 657.978 142.684Z" fill="black"/>
<path d="M668.134 229.178C668.424 222.318 668.328 212.076 671.584 205.964C681.922 200.464 681.592 230.982 670.59 235.04C669.096 233.148 668.646 231.494 668.134 229.178Z" fill="black"/>
<path d="M607.376 93.3838C612.752 94.6178 639.572 106.494 628.518 114.14C623.034 113.524 596.038 100.84 607.376 93.3838Z" fill="black"/>
</svg>
